<svg xmlns="http://www.w3.org/2000/svg" width="18.761" height="18.761" viewBox="0 0 18.761 18.761"><defs><style>.a{fill:#33a5f1;fill-rule:evenodd;}</style></defs><path class="a" d="M9.38,17.588A8.208,8.208,0,1,0,1.173,9.38,8.208,8.208,0,0,0,9.38,17.588Zm0,1.173A9.38,9.38,0,1,0,0,9.38,9.38,9.38,0,0,0,9.38,18.761Z"/><path class="a" d="M17.045,18.161a.586.586,0,0,1,0-.83l3.1-3.1-3.1-3.1a.587.587,0,0,1,.83-.83l3.518,3.518a.586.586,0,0,1,0,.83l-3.518,3.518a.586.586,0,0,1-.83,0Z" transform="translate(-8.08 -4.848)"/><path class="a" d="M10.125,17.461a.586.586,0,0,1,.586-.586h5.863a.586.586,0,0,1,0,1.173H10.711A.586.586,0,0,1,10.125,17.461Z" transform="translate(-4.848 -8.081)"/></svg>