<svg xmlns="http://www.w3.org/2000/svg" xmlns:xlink="http://www.w3.org/1999/xlink" width="611.046" height="545.055" viewBox="0 0 611.046 545.055"><defs><style>.a,.o,.s{fill:#fff;}.a,.s{stroke:#e5e8ef;}.a{stroke-miterlimit:10;}.ab,.b,.c,.i,.j,.k,.n,.t{fill:none;}.b{stroke:#dcdde4;stroke-width:47px;stroke-dasharray:267 410;}.c{stroke:#fd5e5e;stroke-width:38px;stroke-dasharray:151 601;}.d,.l{fill:#7c828a;}.d{font-size:13px;}.d,.e,.f,.g,.q,.r,.v,.z{font-family:Montserrat-SemiBold, Montserrat;font-weight:600;}.e{fill:#fd5e5e;font-size:23px;}.f,.q{fill:#39393e;letter-spacing:0.006em;}.f{font-size:10px;}.g,.h,.r{fill:#6f6f73;}.g{font-size:7px;}.g,.r{letter-spacing:0.005em;}.i,.j,.k{stroke:#707070;}.i{stroke-width:0.5px;opacity:0.3;}.j{stroke-linecap:round;stroke-width:5px;}.k{opacity:0.1;}.l,.q,.y{font-size:9px;}.l{font-family:Montserrat-Medium, Montserrat;font-weight:500;}.m{fill:#33a5f1;}.n{stroke:#33a5f1;stroke-width:22px;}.p{font-size:8px;font-family:NunitoSans-Bold, Nunito Sans;}.p,.u,.y{font-weight:700;}.r{font-size:6px;}.t{stroke:#6d6ef3;stroke-width:60px;stroke-dasharray:212;}.u,.y{fill:#232355;font-family:Montserrat-Bold, Montserrat;}.u{font-size:22px;}.v,.z{fill:#859db6;}.v{font-size:4px;}.w{fill:#eee;}.x{fill:url(#o);}.z{font-size:5px;}.aa{stroke:none;}.ac{filter:url(#m);}.ad{filter:url(#k);}.ae{filter:url(#i);}.af{filter:url(#g);}.ag{filter:url(#e);}.ah{filter:url(#c);}.ai{filter:url(#a);}</style><filter id="a" x="0" y="0" width="533.392" height="412.426" filterUnits="userSpaceOnUse"><feOffset dx="94" dy="44" input="SourceAlpha"/><feGaussianBlur stdDeviation="25" result="b"/><feFlood flood-color="#212657" flood-opacity="0.031"/><feComposite operator="in" in2="b"/><feComposite in="SourceGraphic"/></filter><filter id="c" x="182.452" y="86.345" width="428.594" height="368.83" filterUnits="userSpaceOnUse"><feOffset dx="53" dy="89" input="SourceAlpha"/><feGaussianBlur stdDeviation="13" result="d"/><feFlood flood-color="#212657" flood-opacity="0.031"/><feComposite operator="in" in2="d"/><feComposite in="SourceGraphic"/></filter><filter id="e" x="352.504" y="171.164" width="82.325" height="80.99" filterUnits="userSpaceOnUse"><feOffset input="SourceAlpha"/><feGaussianBlur stdDeviation="8.5" result="f"/><feFlood flood-opacity="0.165"/><feComposite operator="in" in2="f"/><feComposite in="SourceGraphic"/></filter><filter id="g" x="84.041" y="94.012" width="405.396" height="451.044" filterUnits="userSpaceOnUse"><feOffset dx="92" dy="58" input="SourceAlpha"/><feGaussianBlur stdDeviation="37.5" result="h"/><feFlood flood-color="#212657" flood-opacity="0.071"/><feComposite operator="in" in2="h"/><feComposite in="SourceGraphic"/></filter><filter id="i" x="107.963" y="143.647" width="176.667" height="176.231" filterUnits="userSpaceOnUse"><feOffset input="SourceAlpha"/><feGaussianBlur stdDeviation="12.5" result="j"/><feFlood flood-color="#6d6ef3" flood-opacity="0.18"/><feComposite operator="in" in2="j"/><feComposite in="SourceGraphic"/></filter><filter id="k" x="107.963" y="143.647" width="176.667" height="176.231" filterUnits="userSpaceOnUse"><feOffset input="SourceAlpha"/><feGaussianBlur stdDeviation="12.5" result="l"/><feFlood flood-color="#6d6ef3" flood-opacity="0.18"/><feComposite operator="in" in2="l"/><feComposite in="SourceGraphic"/></filter><filter id="m" x="97.461" y="134.645" width="195.856" height="195.975" filterUnits="userSpaceOnUse"><feOffset input="SourceAlpha"/><feGaussianBlur stdDeviation="22.5" result="n"/><feFlood flood-color="#6d6ef3" flood-opacity="0.588"/><feComposite operator="in" in2="n"/><feComposite in="SourceGraphic"/></filter><linearGradient id="o" x1="1" y1="0.5" x2="0" y2="0.5" gradientUnits="objectBoundingBox"><stop offset="0" stop-color="#9ba4e3"/><stop offset="1" stop-color="#6d6ef3"/></linearGradient></defs><g transform="translate(-1172.117 -190.862)"><g transform="matrix(0.934, 0, -0.068, 0.982, 1179.226, 228.972)"><g class="ai" transform="matrix(1.07, 0, 0.07, 1.02, -10.46, -38.82)"><g class="a" transform="matrix(0.93, 0, -0.07, 0.98, 7.11, 38.11)"><rect class="aa" width="371.221" height="244.934" rx="15"/><rect class="ab" x="0.5" y="0.5" width="370.221" height="243.934" rx="14.5"/></g></g><g transform="translate(71.327 75.284)"><path class="b" d="M85,0c46.943,0,85,38.21,85,85.345s-38.055,85.345-85,85.345S0,132.48,0,85.345,38.055,0,85,0Z" transform="translate(28.59 169.997) rotate(-90)"/><path class="c" d="M85,0c46.943,0,85,38.21,85,85.345s-38.055,85.345-85,85.345S0,132.48,0,85.345,38.055,0,85,0Z" transform="translate(28.59 169.997) rotate(-90)"/><text class="d" transform="translate(0 109.263)"><tspan x="0" y="0">Minutes</tspan></text><text class="d" transform="translate(190.119 109.263)"><tspan x="0" y="0">60</tspan></text><text class="e" transform="translate(99.364 78.203)"><tspan x="0" y="0">37</tspan></text></g><g transform="translate(16.653 15.612)"><text class="f" transform="translate(0 10)"><tspan x="0" y="0">Lowest Response Time</tspan></text><g transform="translate(141.895 2.082)"><text class="g" transform="translate(0.952 6.587)"><tspan x="0" y="0">Month</tspan></text><path class="h" d="M2.106,1.789a1,1,0,0,1,1.789,0L5.276,4.553A1,1,0,0,1,4.382,6H1.618A1,1,0,0,1,.724,4.553Z" transform="translate(36.952 8.587) rotate(180)"/><line class="i" x2="38.163" transform="translate(0 10.061)"/></g></g><line class="j" x2="18.04" transform="translate(335.944 22.204)"/><line class="k" x2="371.218" transform="translate(0.347 44.407)"/></g><g transform="matrix(0.934, 0, -0.068, 0.982, 1361.646, 283.251)"><g transform="translate(0.16)"><g class="ah" transform="matrix(1.07, 0, 0.07, 1.02, -210.07, -94.12)"><g class="a" transform="matrix(0.93, 0, -0.07, 0.98, 189.68, 92.39)"><rect class="aa" width="343.023" height="226.329" rx="15"/><rect class="ab" x="0.5" y="0.5" width="342.023" height="225.329" rx="14.5"/></g></g><g transform="translate(117.492 52.254)"><g transform="translate(34.973 132.399)"><text class="l" transform="translate(10.9)"><tspan x="0" y="9">Open</tspan></text><circle class="m" cx="3.206" cy="3.206" r="3.206" transform="translate(0 3.847)"/></g><g transform="translate(0)"><g class="n" transform="translate(-0.152 -0.426)"><circle class="aa" cx="54.5" cy="54.5" r="54.5"/><circle class="ab" cx="54.5" cy="54.5" r="43.5"/></g><g transform="translate(93.318 54.178)"><g class="ag" transform="matrix(1.07, 0, 0.07, 1.02, -420.88, -200.55)"><ellipse class="o" cx="15.067" cy="14.747" rx="15.067" ry="14.747" transform="matrix(0.93, 0, -0.07, 0.98, 379.21, 196.87)"/></g><text class="p" transform="translate(15.53 17.396)"><tspan x="-10.98" y="0">100%</tspan></text></g></g></g></g><g transform="translate(15.708 14.426)"><text class="q" transform="translate(-0.208 9.402)"><tspan x="0" y="0">Twitter</tspan></text><g transform="translate(46.324 1.923)"><text class="r" transform="translate(1.282 6)"><tspan x="0" y="0">Month</tspan></text><path class="h" d="M2.014,1.549a1,1,0,0,1,1.743,0l1.175,2.09a1,1,0,0,1-.872,1.49H1.71a1,1,0,0,1-.872-1.49Z" transform="translate(33.981 7.694) rotate(180)"/><line class="i" x2="35.264" transform="translate(0 9.297)"/></g></g><line class="j" x2="16.67" transform="translate(310.586 20.517)"/><line class="k" x2="343.5" transform="translate(0 41.034)"/></g><g transform="matrix(0.934, 0, -0.068, 0.982, 56.387, 44.088)"><g class="af" transform="matrix(1.07, 0, 0.07, 1.02, 1206.06, 149.52)"><g class="s" transform="matrix(0.93, 0, -0.07, 0.98, 118.32, 150.17)"><rect class="aa" width="177" height="221" rx="15"/><rect class="ab" x="0.5" y="0.5" width="176" height="220" rx="14.5"/></g></g><g transform="translate(1381.646 334.73)"><g class="ae" transform="matrix(1.07, 0, 0.07, 1.02, -175.59, -185.21)"><circle class="o" cx="51" cy="51" r="51" transform="matrix(0.93, 0, -0.07, 0.98, 151.6, 181.58)"/></g><g class="ad" transform="matrix(1.07, 0, 0.07, 1.02, -175.59, -185.21)"><g class="t" transform="matrix(-0.07, 0.98, -0.93, 0, 246.83, 181.58)"><circle class="aa" cx="51" cy="51" r="51"/><circle class="ab" cx="51" cy="51" r="21"/></g></g><g class="ac" transform="matrix(1.07, 0, 0.07, 1.02, -175.59, -185.21)"><ellipse class="o" cx="30.5" cy="31" rx="30.5" ry="31" transform="matrix(0.93, 0, -0.07, 0.98, 168.84, 202.19)"/></g><g transform="translate(39.798 35.495)"><text class="u" transform="translate(-0.443 21.274)"><tspan x="0" y="0">17</tspan></text><text class="v" transform="translate(0.557 30.274)"><tspan x="0" y="0">days left</tspan></text></g></g><g transform="translate(1360.672 463.804)"><g transform="translate(0 20.437)"><rect class="w" width="144" height="5" rx="2.5" transform="translate(0.328 0.26)"/><rect class="x" width="56" height="5" rx="2.5" transform="translate(0.328 0.26)"/></g><text class="y" transform="translate(38.328 8.696)"><tspan x="0" y="0">Total days: 25</tspan></text><text class="z" transform="translate(28.328 35.696)"><tspan x="0" y="0">You have used 38% of your time</tspan></text></g></g></g></svg>