<svg xmlns="http://www.w3.org/2000/svg" width="819.068" height="542.971" viewBox="0 0 819.068 542.971"><defs><style>.a{fill:#91a8f6;}.b{fill:#93c7ea;}.c{fill:#ff8383;}.d{fill:#d15e79;}.e{fill:#1b2a67;}.f{fill:#86294e;}.g{fill:#ffd2d4;}.h{fill:#6eacce;}.i{fill:#445eea;}.j{fill:#e0eef7;}.k{fill:#fff;}.l,.p{fill:none;}.l{stroke:#1b2a67;stroke-miterlimit:10;stroke-width:0.827px;}.l,.o,.p{stroke-linecap:round;}.m{fill:#6d6ef3;}.n{fill:#33a5f1;}.o{fill:#e9f6ff;stroke:#e9f6ff;stroke-width:2.761px;}.o,.p{stroke-linejoin:round;}.p{stroke:#445eea;stroke-width:0.658px;}</style></defs><g transform="translate(-91.92 -59.6)"><g transform="translate(91.92 59.6)"><g transform="translate(36.402)"><path class="a" d="M532.055,248.105a5.581,5.581,0,1,1-5.579-5.581A5.586,5.586,0,0,1,532.055,248.105Zm-2.766,0a2.815,2.815,0,1,0-2.812,2.815A2.817,2.817,0,0,0,529.289,248.105Z" transform="translate(63.304 22.114)"/><g transform="translate(639.945 65.889)"><path class="a" d="M603.638,105.148H572.031a1.382,1.382,0,0,0,0,2.765h31.606a1.382,1.382,0,1,0,0-2.765Z" transform="translate(-554.415 -105.142)"/><path class="a" d="M566.986,105.144h-6.175a1.383,1.383,0,0,0,0,2.766h6.175a1.383,1.383,0,0,0,0-2.766Z" transform="translate(-559.428 -105.144)"/><path class="a" d="M593.8,113.187a1.383,1.383,0,0,1-1.383,1.383h-3.954a1.383,1.383,0,0,1,0-2.766h3.954A1.383,1.383,0,0,1,593.8,113.187Zm-10.866,0a1.383,1.383,0,0,1-1.383,1.383h-6.914a1.383,1.383,0,0,1,0-2.766h6.914A1.383,1.383,0,0,1,582.935,113.187Zm-13.828,0a1.382,1.382,0,0,1-1.382,1.383h-6.914a1.383,1.383,0,0,1,0-2.766h6.914A1.382,1.382,0,0,1,569.107,113.187Z" transform="translate(-559.427 -102.169)"/></g><g transform="translate(168.173 148.467)"><path class="a" d="M239.428,169.04a1.383,1.383,0,0,0-1.383,1.383v3.207a1.383,1.383,0,0,0,2.766,0v-3.207A1.383,1.383,0,0,0,239.428,169.04Z" transform="translate(-231.219 -159.179)"/><path class="a" d="M237.917,166.816h-3.209a1.383,1.383,0,0,0,0,2.766h3.209a1.383,1.383,0,0,0,0-2.766Z" transform="translate(-233.327 -160.173)"/><path class="a" d="M239.428,162.224a1.382,1.382,0,0,0-1.383,1.382v3.206a1.383,1.383,0,0,0,2.766,0v-3.206A1.382,1.382,0,0,0,239.428,162.224Z" transform="translate(-231.219 -162.224)"/><path class="a" d="M245.137,166.664h-3.209a1.382,1.382,0,0,0,0,2.765h3.209a1.382,1.382,0,0,0,0-2.765Z" transform="translate(-230.102 -160.241)"/></g><g transform="translate(515.963 58.822)"><path class="a" d="M479.829,107.076a1.383,1.383,0,0,0-1.383,1.383v3.206a1.383,1.383,0,0,0,2.766,0v-3.206A1.383,1.383,0,0,0,479.829,107.076Z" transform="translate(-471.62 -97.214)"/><path class="a" d="M478.318,104.852H475.11a1.382,1.382,0,0,0,0,2.765h3.209a1.382,1.382,0,0,0,0-2.765Z" transform="translate(-473.728 -98.207)"/><path class="a" d="M479.829,100.259a1.383,1.383,0,0,0-1.383,1.383v3.206a1.383,1.383,0,0,0,2.766,0v-3.206A1.383,1.383,0,0,0,479.829,100.259Z" transform="translate(-471.62 -100.259)"/><path class="a" d="M485.538,104.7H482.33a1.382,1.382,0,0,0,0,2.765h3.209a1.382,1.382,0,0,0,0-2.765Z" transform="translate(-470.503 -98.275)"/></g><g transform="translate(346.038)"><path class="a" d="M400.482,59.6H368.876a1.382,1.382,0,0,0,0,2.765h31.606a1.382,1.382,0,1,0,0-2.765Z" transform="translate(-351.259 -59.598)"/><path class="a" d="M363.83,59.6h-6.176a1.382,1.382,0,0,0,0,2.765h6.176a1.382,1.382,0,1,0,0-2.765Z" transform="translate(-356.272 -59.6)"/><path class="a" d="M390.645,67.643a1.382,1.382,0,0,1-1.383,1.382h-3.954a1.382,1.382,0,0,1,0-2.765h3.954A1.383,1.383,0,0,1,390.645,67.643Zm-10.866,0a1.382,1.382,0,0,1-1.383,1.382h-6.914a1.382,1.382,0,0,1,0-2.765H378.4A1.383,1.383,0,0,1,379.779,67.643Zm-13.828,0a1.381,1.381,0,0,1-1.382,1.382h-6.914a1.382,1.382,0,1,1,0-2.765h6.914A1.383,1.383,0,0,1,365.951,67.643Z" transform="translate(-356.272 -56.625)"/></g><path class="a" d="M625.128,161.242a4.883,4.883,0,1,0,4.883-4.883A4.882,4.882,0,0,0,625.128,161.242Z" transform="translate(109.866 -16.377)"/><g transform="translate(77.315 381.326)"><path class="a" d="M183.129,325.947h31.606a1.382,1.382,0,0,0,0-2.765H183.129a1.382,1.382,0,1,0,0,2.765Z" transform="translate(-165.511 -323.182)"/><path class="a" d="M171.907,325.951h6.176a1.382,1.382,0,0,0,0-2.765h-6.176a1.382,1.382,0,1,0,0,2.765Z" transform="translate(-170.524 -323.18)"/></g><path class="a" d="M599.783,340.636s1.888,13.469-13.845,13.158c0,0,13.514.137,13.159,12.776,0,0,1.215-9.942,13.616-12.162C612.714,354.407,602.234,356.81,599.783,340.636Z" transform="translate(92.36 65.941)"/><path class="a" d="M651.7,209.323s1.888,13.469-13.845,13.158c0,0,13.514.137,13.158,12.776,0,0,1.217-9.942,13.616-12.162C664.631,223.094,654.153,225.5,651.7,209.323Z" transform="translate(115.553 7.283)"/><path class="a" d="M306.8,83.28s1.888,13.467-13.845,13.156c0,0,13.514.139,13.159,12.776,0,0,1.215-9.94,13.616-12.162C319.728,97.05,309.248,99.454,306.8,83.28Z" transform="translate(-38.519 -49.022)"/><path class="a" d="M213.184,108.99s1.888,13.469-13.844,13.158c0,0,13.514.139,13.158,12.776,0,0,1.215-9.942,13.616-12.162C226.114,122.761,215.636,125.166,213.184,108.99Z" transform="translate(-80.337 -37.537)"/><path class="a" d="M267.14,69.2s.657,4.693-4.826,4.586c0,0,4.712.048,4.585,4.454,0,0,.424-3.466,4.747-4.242C271.645,74,267.992,74.836,267.14,69.2Z" transform="translate(-52.206 -55.312)"/><path class="a" d="M437.431,181.07s.657,4.693-4.826,4.586c0,0,4.712.048,4.585,4.454,0,0,.425-3.466,4.747-4.242C441.936,185.869,438.283,186.706,437.431,181.07Z" transform="translate(23.865 -5.338)"/><path class="a" d="M121.907,236.533s.657,4.693-4.825,4.586c0,0,4.71.048,4.585,4.454,0,0,.424-3.466,4.747-4.24C126.413,241.333,122.76,242.169,121.907,236.533Z" transform="translate(-117.082 19.437)"/><path class="a" d="M405.053,324.013s.657,4.695-4.826,4.587c0,0,4.712.048,4.585,4.453,0,0,.425-3.466,4.747-4.24C409.558,328.813,405.905,329.651,405.053,324.013Z" transform="translate(9.401 58.515)"/><g transform="translate(190.245 281.8)"><path class="a" d="M286.394,279.454H255.7a7.12,7.12,0,0,1-.229-14.236,11.019,11.019,0,0,1,20.248-5.83,7.991,7.991,0,0,1,8.874,5.826h1.8a7.12,7.12,0,0,1,0,14.24ZM255.7,267.322a5.013,5.013,0,1,0,0,10.026h30.689a5.013,5.013,0,0,0,0-10.026h-3.543l-.14-.888a5.888,5.888,0,0,0-7.264-4.849l-.775.185-.389-.7a8.911,8.911,0,0,0-16.7,4.333c0,.26.017.518.039.771l.1,1.144Z" transform="translate(-248.584 -254.387)"/></g><g transform="translate(737.737 22.078)"><path class="a" d="M664.834,99.93h-30.69a7.12,7.12,0,0,1-.227-14.237,11.018,11.018,0,0,1,20.247-5.829,8,8,0,0,1,8.876,5.826h1.8a7.12,7.12,0,0,1,0,14.24ZM634.143,87.8a5.013,5.013,0,0,0,0,10.026h30.69a5.013,5.013,0,1,0,0-10.026h-3.543l-.14-.888a5.892,5.892,0,0,0-7.264-4.849l-.775.185-.389-.7a8.912,8.912,0,0,0-16.7,4.334c0,.26.017.516.041.771l.1,1.143Z" transform="translate(-627.024 -74.861)"/></g><g transform="translate(262.543 100.433)"><path class="a" d="M336.368,154.091h-30.69a7.12,7.12,0,0,1-.227-14.236,11.017,11.017,0,0,1,20.247-5.829,8,8,0,0,1,8.876,5.826h1.8a7.119,7.119,0,0,1,0,14.239Zm-30.69-12.132a5.013,5.013,0,0,0,0,10.026h30.69a5.013,5.013,0,0,0,0-10.026h-3.543l-.14-.888a5.892,5.892,0,0,0-7.264-4.849l-.775.185-.389-.7a8.912,8.912,0,0,0-16.7,4.333c0,.26.017.518.04.771l.1,1.144Z" transform="translate(-298.558 -129.022)"/></g></g><g transform="translate(257.307 241.125)"><g transform="translate(124.321 153.226)"><path class="b" d="M406.953,454.8h0a24.8,24.8,0,0,1-30.618-17.113l-19.68-69.552a24.8,24.8,0,0,1,17.113-30.62h0a24.806,24.806,0,0,1,30.62,17.113l19.68,69.553A24.8,24.8,0,0,1,406.953,454.8Z" transform="translate(-355.711 -330.226)"/><path class="b" d="M374.012,446.947h0a24.8,24.8,0,0,1-.34-35.075l50.613-51.606a24.8,24.8,0,0,1,35.075-.34h0A24.8,24.8,0,0,1,459.7,395l-50.613,51.605A24.8,24.8,0,0,1,374.012,446.947Z" transform="translate(-350.857 -322.962)"/><g transform="translate(82.226)"><path class="c" d="M453.632,352.373A21.732,21.732,0,1,1,423.5,346.33,21.732,21.732,0,0,1,453.632,352.373Z" transform="translate(-411.984 -327.494)"/><path class="c" d="M421.551,361.292h0a5.663,5.663,0,0,1-6.9-4.072l-1.927-7.478a5.663,5.663,0,0,1,4.071-6.9h0a5.663,5.663,0,0,1,6.9,4.071l1.926,7.478A5.663,5.663,0,0,1,421.551,361.292Z" transform="translate(-412.547 -327.503)"/><path class="c" d="M439.721,340.225l-7.7,19.494a5.878,5.878,0,0,1-7.627,3.309h0a5.881,5.881,0,0,1-3.309-7.629l7.7-19.494a5.878,5.878,0,0,1,7.627-3.307h0A5.878,5.878,0,0,1,439.721,340.225Z" transform="translate(-408.918 -332.184)"/><path class="c" d="M449.533,343.187l-9.3,18.784a5.876,5.876,0,0,1-7.876,2.661h0a5.878,5.878,0,0,1-2.66-7.877l9.3-18.784a5.881,5.881,0,0,1,7.877-2.66h0A5.879,5.879,0,0,1,449.533,343.187Z" transform="translate(-405.16 -331.061)"/><path class="c" d="M457.448,350.736l-12.987,16.452a5.88,5.88,0,0,1-8.258.972h0a5.88,5.88,0,0,1-.971-8.258l12.986-16.452a5.881,5.881,0,0,1,8.258-.972h0A5.88,5.88,0,0,1,457.448,350.736Z" transform="translate(-402.979 -328.151)"/></g></g><g transform="translate(73.643 0)"><g transform="translate(29.534 78.743)"><path class="c" d="M0,0H28.976a0,0,0,0,1,0,0V48.02a7.1,7.1,0,0,1-7.1,7.1H7.1A7.1,7.1,0,0,1,0,48.02V0A0,0,0,0,1,0,0Z" transform="translate(2.166 1.575) rotate(2.253)"/><path class="d" d="M371.689,281.839,342.736,280.7l-.447,11.373c-.438,11.144,8.633,20.925,19.756,20.115a20.107,20.107,0,0,0,2.079-.26,20.311,20.311,0,0,0,6.475-2.368Z" transform="translate(-340.569 -280.7)"/></g><g transform="translate(0)"><ellipse class="e" cx="36.106" cy="27.81" rx="36.106" ry="27.81" transform="translate(0 32.966) rotate(-15.799)"/><ellipse class="e" cx="32.08" cy="20.882" rx="32.08" ry="20.882" transform="translate(29.616 33.313) rotate(-9.641)"/><ellipse class="e" cx="32.079" cy="20.882" rx="32.079" ry="20.882" transform="matrix(0.734, -0.679, 0.679, 0.734, 9.176, 43.549)"/><path class="c" d="M389.779,288.119c2.85,15.972-5.509,30.825-18.668,33.173h0c-13.158,2.348-26.136-8.7-28.986-24.668l-2.242-12.571c-2.85-15.972,5.506-30.825,18.663-33.173h0c13.161-2.348,26.142,8.7,28.992,24.669Z" transform="translate(-312.353 -215.418)"/><path class="e" d="M365.63,250.532c-7.278-6.587-19.946-3.4-28.293,7.116s-9.214,24.384-1.936,30.973,19.944,3.4,28.292-7.116S372.907,257.12,365.63,250.532Z" transform="translate(-316.311 -216.966)"/><g transform="translate(41.016 58.867)"><g transform="translate(11.779 6.414)"><g transform="translate(0 0.007)"><path class="f" d="M358.5,275.264a1.319,1.319,0,0,1-.758-2.4c.175-.117,4.373-2.967,8.823-.376a1.324,1.324,0,0,1-1.332,2.289,5.874,5.874,0,0,0-5.987.262A1.32,1.32,0,0,1,358.5,275.264Z" transform="translate(-357.174 -271.4)"/></g><g transform="translate(15.431)"><path class="f" d="M376.564,275.271a1.3,1.3,0,0,1-.748-.233h0a5.872,5.872,0,0,0-5.986-.262,1.324,1.324,0,0,1-1.332-2.289c4.457-2.605,8.647.255,8.823.376a1.322,1.322,0,0,1-.757,2.407Z" transform="translate(-367.84 -271.395)"/></g><g transform="translate(4.534 5.998)"><path class="f" d="M363.068,276.975a1.38,1.38,0,1,1-1.325-1.432A1.38,1.38,0,0,1,363.068,276.975Z" transform="translate(-360.308 -275.541)"/></g><path class="f" d="M372.22,277.335A1.381,1.381,0,1,1,370.9,275.9,1.381,1.381,0,0,1,372.22,277.335Z" transform="translate(-351.686 -269.382)"/></g><g transform="translate(24.661 2.253)"><path class="g" d="M376.95,290.237c-.146,0-.294,0-.441-.01a10.759,10.759,0,1,1,.441.01Zm-.023-19.882a9.024,9.024,0,0,0-.346,18.04A9.158,9.158,0,0,0,383.062,286a9.022,9.022,0,0,0-5.768-15.642C377.169,270.358,377.048,270.355,376.926,270.355Z" transform="translate(-366.079 -268.519)"/></g><path class="g" d="M361.238,291.351c-.164,0-.328,0-.492-.012a12.192,12.192,0,0,1-7.8-21.135,12.2,12.2,0,0,1,17.229.676,12.2,12.2,0,0,1-8.939,20.471Zm-.026-22.323A10.127,10.127,0,0,0,351.1,278.76h0a10.142,10.142,0,0,0,9.726,10.519,10.13,10.13,0,1,0,.8-20.244C361.485,269.028,361.349,269.028,361.212,269.028Z" transform="translate(-349.032 -266.962)"/><g transform="translate(21.372 12.21)"><path class="g" d="M364.713,277.29l4.485.177a.944.944,0,0,0,.981-.907h0a.943.943,0,0,0-.906-.981l-4.485-.177a.945.945,0,0,0-.982.907h0A.945.945,0,0,0,364.713,277.29Z" transform="translate(-363.805 -275.401)"/></g><g transform="translate(23.545 17.935)"><path class="f" d="M373.024,281.881c-.127,1.576-1.957,3.011-4.085,3.207s-3.751-.923-3.624-2.5,1.957-3.012,4.087-3.209S373.151,280.3,373.024,281.881Z" transform="translate(-365.307 -279.359)"/></g><g transform="translate(16.817 27.378)"><path class="f" d="M374.2,287.438a6.918,6.918,0,0,1-7.432,6.338c-3.961-.156-6.247-4.078-6.1-7.736A34.3,34.3,0,0,1,374.2,287.438Z" transform="translate(-360.657 -285.884)"/><path class="g" d="M366.9,289.728c-3.132-.363-5.062-1.437-5.247-3.79a34.116,34.116,0,0,1,11.425,1.27C372.54,289.328,369.965,290.083,366.9,289.728Z" transform="translate(-360.213 -285.886)"/></g></g></g></g><g transform="translate(44.108 109.997)"><path class="b" d="M397.944,488.791l-75.706,2.132a22.87,22.87,0,0,1-21.954-23.751l4.783-126.693A15.744,15.744,0,0,1,316.022,326.1l56.439-17.971,45.114,21.622a15.743,15.743,0,0,1,8.928,14.817l-4.809,122.273A22.87,22.87,0,0,1,397.944,488.791Z" transform="translate(-300.266 -299.703)"/><path class="h" d="M396.342,333.313c.26,13.211.108,26.405-.108,39.6-.174,13.193-.644,26.375-1.114,39.557-.561,13.178-1.13,26.356-1.989,39.521-.2,3.2-.356,6.807-1.565,10.082a22.952,22.952,0,0,1-23.783,15.468,22.96,22.96,0,0,0,17.023-7.989,21.478,21.478,0,0,0,4.488-8.212c.926-3.011.9-6.095.932-9.464.175-13.193.644-26.375,1.12-39.557.566-13.177,1.133-26.355,2-39.523C394.162,359.629,395.046,346.464,396.342,333.313Z" transform="translate(-270.105 -288.452)"/><path class="b" d="M3.786,0H37.158a3.787,3.787,0,0,1,3.787,3.787V29.815a0,0,0,0,1,0,0H0a0,0,0,0,1,0,0V3.786A3.786,3.786,0,0,1,3.786,0Z" transform="translate(53.974 0) rotate(3.691)"/></g><g transform="translate(0 147.479)"><path class="b" d="M285.073,442.681h0a24.8,24.8,0,0,1-13.392-32.418L299.4,343.508a24.8,24.8,0,0,1,32.419-13.392h0a24.8,24.8,0,0,1,13.394,32.418l-27.725,66.755A24.8,24.8,0,0,1,285.073,442.681Z" transform="translate(-269.777 -328.212)"/><path class="h" d="M317.09,329.528a24.378,24.378,0,0,1,11.458,8.048,25.621,25.621,0,0,1,5.214,13.4c.655,4.855-.906,10.031-2.691,14.21l-5.236,12.881c-3.6,8.544-7.2,17.084-11.067,25.513l-5.82,12.64c-2.067,4.159-4.015,8.369-6.189,12.484,1.382-4.443,2.99-8.795,4.478-13.194l4.846-13.044c3.238-8.693,6.747-17.272,10.263-25.848l5.429-12.8a36.171,36.171,0,0,0,2.348-6.228,24.072,24.072,0,0,0,.749-6.448A25.2,25.2,0,0,0,317.09,329.528Z" transform="translate(-255.044 -327.624)"/><g transform="translate(1.549 46.999)"><g transform="translate(108.507)"><g transform="translate(0 8.788)"><path class="f" d="M366.53,390.471l-12.63-.814a8.614,8.614,0,0,1-8.032-9.14l.367-5.694a8.613,8.613,0,0,1,9.139-8.031l12.63.814Zm-11.52-18.023a2.938,2.938,0,0,0-3.116,2.74l-.368,5.694A2.937,2.937,0,0,0,354.265,384l6.973.45.745-11.551Z" transform="translate(-345.85 -366.774)"/></g><g transform="translate(10.776)"><path class="d" d="M375.485,411.35l-10.924-.7a12.037,12.037,0,0,1-11.237-12.786l2.266-35.117c.252-3.918,35.2-1.664,34.945,2.254l-2.264,35.117A12.037,12.037,0,0,1,375.485,411.35Z" transform="translate(-353.299 -360.699)"/><path class="f" d="M385.48,365.45c-.091,1.412-6.58,2.141-14.492,1.63s-14.252-2.067-14.162-3.478,6.58-2.141,14.492-1.631S385.571,364.04,385.48,365.45Z" transform="translate(-351.724 -360.203)"/></g></g><path class="b" d="M270.851,399.46h0a24.8,24.8,0,0,1,25.191-24.407l72.273,1.14a24.8,24.8,0,0,1,24.409,25.192h0a24.8,24.8,0,0,1-25.192,24.409L295.26,424.65A24.8,24.8,0,0,1,270.851,399.46Z" transform="translate(-270.848 -354.29)"/><path class="h" d="M288.263,375.4c9.281-.634,18.554-.854,27.827-1.008,9.273-.2,18.543-.1,27.812,0l13.9.318c4.541.032,9.916.652,14.108,3.187a25.668,25.668,0,0,1,10.217,10.12,24.4,24.4,0,0,1,2.817,13.719,25.2,25.2,0,0,0-14.338-21.242,24.367,24.367,0,0,0-6.211-1.881,36.353,36.353,0,0,0-6.649-.324l-13.9-.12c-9.268-.194-18.535-.389-27.8-.881C306.781,376.834,297.519,376.323,288.263,375.4Z" transform="translate(-263.068 -354.636)"/><g transform="translate(94.58 11.07)"><circle class="c" cx="21.732" cy="21.732" r="21.732" transform="translate(0 33.449) rotate(-50.316)"/><path class="c" d="M350.689,387.494h0a5.2,5.2,0,0,1-3.212-6.61l2.316-6.7a5.2,5.2,0,0,1,6.611-3.212h0a5.2,5.2,0,0,1,3.212,6.61l-2.318,6.7A5.2,5.2,0,0,1,350.689,387.494Z" transform="translate(-331.325 -367.307)"/><path class="c" d="M386.161,387.618l-19.288,1.8a5.433,5.433,0,0,1-5.913-4.906h0a5.434,5.434,0,0,1,4.907-5.914l19.286-1.794a5.433,5.433,0,0,1,5.913,4.906h0A5.433,5.433,0,0,1,386.161,387.618Z" transform="translate(-325.185 -364.588)"/><path class="c" d="M383.086,400.266l-19.331-1.247a5.431,5.431,0,0,1-5.071-5.771h0a5.432,5.432,0,0,1,5.771-5.072l19.329,1.247a5.431,5.431,0,0,1,5.072,5.771h0A5.432,5.432,0,0,1,383.086,400.266Z" transform="translate(-326.196 -359.5)"/></g></g></g></g><g transform="translate(363.341 373.119)"><g transform="translate(225.873)"><g transform="translate(15.409 22.242)"><path class="i" d="M512.117,359.06a2.267,2.267,0,0,1-1.6-3.868l21.64-21.644a2.266,2.266,0,0,1,3.2,3.2l-21.64,21.643A2.25,2.25,0,0,1,512.117,359.06Z" transform="translate(-509.85 -332.883)"/></g><path class="i" d="M501.465,352.647a2.265,2.265,0,0,1-2.266-2.266V319.776a2.266,2.266,0,1,1,4.533,0v30.605A2.267,2.267,0,0,1,501.465,352.647Z" transform="translate(-499.199 -317.509)"/><g transform="translate(28.685 59.295)"><path class="i" d="M551.9,363.027H521.294a2.266,2.266,0,1,1,0-4.533H551.9a2.266,2.266,0,1,1,0,4.533Z" transform="translate(-519.027 -358.495)"/></g></g><g transform="translate(0 57.942)"><path class="h" d="M356.77,430.352H544.032c5.223,0,6.833-4.232,6.833-9.457H347.31A9.457,9.457,0,0,0,356.77,430.352Z" transform="translate(-341.176 -329.268)"/><path class="h" d="M347.8,420.895h66.378c0,5.226-4.809,9.457-10.742,9.457h-43.5c-.059,0-12.358,0-12.417,0C341.4,430.264,341.684,420.895,347.8,420.895Z" transform="translate(-343.07 -329.268)"/><g transform="translate(66.939)"><path class="j" d="M397.654,451.939H532.089a8.312,8.312,0,0,0,8.164-6.762l18.12-77.752a8.312,8.312,0,0,0-8.167-9.865H415.776a8.313,8.313,0,0,0-8.17,6.763l-18.117,77.749A8.314,8.314,0,0,0,397.654,451.939Z" transform="translate(-389.34 -357.56)"/><path class="h" d="M407.606,363.839a8.3,8.3,0,0,1,3.314-5.2,8.281,8.281,0,0,1,3.317,8.3l-18.116,77.752a8.3,8.3,0,0,1-3.312,5.189,8.292,8.292,0,0,1-3.322-8.294Z" transform="translate(-389.34 -357.076)"/><path class="k" d="M469.745,402.092H447.7a8.191,8.191,0,0,1-8.19-8.19h0a8.19,8.19,0,0,1,8.19-8.188h22.046a8.189,8.189,0,0,1,8.19,8.188h0A8.191,8.191,0,0,1,469.745,402.092Z" transform="translate(-366.93 -344.983)"/></g><g transform="translate(15.798 89.509)"><path class="h" d="M362.967,424.156h-6.614a2.362,2.362,0,0,1-2.362-2.362h0a2.362,2.362,0,0,1,2.362-2.363h6.614a2.362,2.362,0,0,1,2.362,2.363h0A2.362,2.362,0,0,1,362.967,424.156Z" transform="translate(-353.99 -419.431)"/><path class="h" d="M371.893,424.156h-6.614a2.362,2.362,0,0,1-2.363-2.362h0a2.362,2.362,0,0,1,2.363-2.363h6.614a2.362,2.362,0,0,1,2.362,2.363h0A2.362,2.362,0,0,1,371.893,424.156Z" transform="translate(-350.003 -419.431)"/><path class="h" d="M380.819,424.156H374.2a2.362,2.362,0,0,1-2.362-2.362h0a2.362,2.362,0,0,1,2.362-2.363h6.614a2.362,2.362,0,0,1,2.362,2.363h0A2.362,2.362,0,0,1,380.819,424.156Z" transform="translate(-346.015 -419.431)"/><path class="h" d="M389.745,424.156H383.13a2.362,2.362,0,0,1-2.362-2.362h0a2.362,2.362,0,0,1,2.362-2.363h6.614a2.362,2.362,0,0,1,2.362,2.363h0A2.362,2.362,0,0,1,389.745,424.156Z" transform="translate(-342.028 -419.431)"/></g></g></g><path class="e" d="M733.7,438.416H168.039a5.668,5.668,0,0,1-5.67-5.668h0a5.669,5.669,0,0,1,5.67-5.67H733.7a5.669,5.669,0,0,1,5.668,5.67h0A5.668,5.668,0,0,1,733.7,438.416Z" transform="translate(-60.45 104.555)"/><g transform="translate(159.614 435.711)"><path class="l" d="M228.429,415.016s-4.164-31.279-11.7-38.969" transform="translate(-195.781 -353.951)"/><g transform="translate(5.077)"><path class="g" d="M220.474,364.259c2.014,6.666,1.6,12.688-.92,13.45s-6.2-4.025-8.212-10.691c-.02-.067-.041-.133-.059-.2-1.706-5.939,7.261-8.648,9.129-2.757C220.434,364.126,220.454,364.192,220.474,364.259Z" transform="translate(-203.387 -360.774)"/><g transform="translate(0 8.977)"><path class="g" d="M230.016,376.385c-6.666,2.014-12.688,1.6-13.45-.92s4.025-6.2,10.691-8.211c.067-.02.133-.041.2-.059,5.939-1.707,8.648,7.261,2.759,9.129C230.149,376.345,230.082,376.365,230.016,376.385Z" transform="translate(-200.967 -366.979)"/><path class="g" d="M212,381.457c6.665-2.014,11.452-5.691,10.69-8.212s-6.784-2.934-13.45-.92l-.2.062c-5.89,1.868-3.181,10.834,2.757,9.129Z" transform="translate(-205.759 -365.162)"/></g><g transform="translate(8.038 18.3)"><path class="g" d="M220.742,387.648c1.874-6.707,1.337-12.718-1.2-13.427s-6.112,4.152-7.987,10.859c-.017.068-.036.135-.054.2-1.583,5.973,7.44,8.5,9.184,2.566C220.7,387.781,220.723,387.715,220.742,387.648Z" transform="translate(-211.315 -373.098)"/><path class="g" d="M224.42,386.029c-5.275-4.547-8.155-9.851-6.435-11.846s7.39.074,12.665,4.621l.156.137c4.625,4.1-1.493,11.193-6.227,7.222C224.525,386.12,224.473,386.074,224.42,386.029Z" transform="translate(-208.558 -373.424)"/></g><path class="d" d="M221.076,373.8a3.26,3.26,0,1,1-4.064-2.179A3.259,3.259,0,0,1,221.076,373.8Z" transform="translate(-201.767 -355.991)"/></g><g transform="translate(0 29.481)"><path class="i" d="M222.6,391.071c8.66,6.823,13.589,15.01,11.007,18.286s-11.694.4-20.354-6.423-11.008-18.286-11.008-18.286S213.943,384.248,222.6,391.071Z" transform="translate(-202.249 -379.593)"/><path class="i" d="M244.585,402.958c-9.142,8.586-19.185,12.743-22.433,9.283s1.531-13.22,10.672-21.806,22.433-9.284,22.433-9.284S253.727,394.373,244.585,402.958Z" transform="translate(-193.813 -381.152)"/></g><g transform="translate(5.214 55.839)"><path class="e" d="M243.55,440H213.639L208.4,402.373h40.382Z" transform="translate(-204.714 -398.031)"/><rect class="e" width="47.762" height="13.991" rx="1.469"/></g></g><g transform="translate(0 47.442)"><g transform="translate(0 28.459)"><g transform="translate(249.72 86.209)"><path class="m" d="M285.44,217.588,300.274,233.5l113.063-47.159Z" transform="translate(-255.193 -165.096)"/><path class="a" d="M300.054,171.655,288.887,188.5l7.55,16.509-16.937,2.88-14.967,32.86L426.3,191.8Z" transform="translate(-264.533 -171.655)"/><path class="m" d="M288.917,199.809l-7.55-16.509,87.624,4.1Z" transform="translate(-257.012 -166.453)"/></g><g transform="translate(128.05 145.507)"><path class="i" d="M325.491,349.975q-1.866,0-3.735-.023a2.264,2.264,0,0,1-2.241-2.292,2.217,2.217,0,0,1,2.293-2.241c5.871.067,11.7-.025,18.1-.3h.1a2.267,2.267,0,0,1,.1,4.533C334.973,349.87,330.193,349.975,325.491,349.975Zm-21.906-.894a1.841,1.841,0,0,1-.2-.007c-6.244-.535-12.39-1.335-18.262-2.38a2.267,2.267,0,0,1-1.834-2.632,2.3,2.3,0,0,1,2.632-1.834c5.735,1.021,11.744,1.8,17.857,2.328a2.267,2.267,0,0,1-.192,4.525ZM267.8,342.537a2.185,2.185,0,0,1-.665-.1,131.124,131.124,0,0,1-17.284-6.643,2.267,2.267,0,1,1,1.927-4.1,127.4,127.4,0,0,0,16.686,6.415,2.269,2.269,0,0,1-.664,4.437ZM234.96,327.069a2.26,2.26,0,0,1-1.256-.38,120.231,120.231,0,0,1-14.59-11.461,2.267,2.267,0,1,1,3.071-3.336,115.809,115.809,0,0,0,14.036,11.024,2.267,2.267,0,0,1-1.262,4.154Zm-26.722-24.556a2.273,2.273,0,0,1-1.777-.852,120.971,120.971,0,0,1-10.408-15.365A2.268,2.268,0,0,1,200,284.051a116.255,116.255,0,0,0,10.017,14.781,2.266,2.266,0,0,1-1.775,3.68ZM190.277,270.97a2.272,2.272,0,0,1-2.122-1.468,111.3,111.3,0,0,1-5.1-17.871,2.268,2.268,0,0,1,4.452-.872A106.715,106.715,0,0,0,192.4,267.9a2.272,2.272,0,0,1-2.122,3.071Zm-7.234-35.58a2.269,2.269,0,0,1-2.26-2.122c-.236-3.705-.353-7.607-.353-11.59v-.919q.011-2.956.106-5.924a2.267,2.267,0,0,1,2.267-2.192h.074a2.267,2.267,0,0,1,2.192,2.339q-.093,2.9-.107,5.784v.911c0,3.89.119,7.692.347,11.3a2.263,2.263,0,0,1-2.118,2.407C183.144,235.39,183.094,235.39,183.044,235.39Z" transform="translate(-180.431 -212.643)"/></g><path class="i" d="M241.649,244.362q-5.193,0-10.22-.126a2.267,2.267,0,0,1,.059-4.533h.059q8.78.221,18.114.048a2.145,2.145,0,0,1,2.31,2.222,2.261,2.261,0,0,1-2.222,2.31Q245.649,244.362,241.649,244.362Zm26.262-.761a2.266,2.266,0,0,1-.122-4.528c5.864-.333,11.954-.771,18.1-1.314a2.267,2.267,0,1,1,.4,4.517c-6.2.547-12.335.994-18.252,1.322C268,243.6,267.954,243.6,267.911,243.6Zm-54.615-.288c-.059,0-.119,0-.181,0-6.312-.492-12.453-1.163-18.256-1.994a2.266,2.266,0,0,1-1.923-2.565,2.3,2.3,0,0,1,2.565-1.923c5.706.816,11.752,1.476,17.968,1.956a2.268,2.268,0,0,1-.174,4.528Zm90.914-2.9a2.267,2.267,0,0,1-.258-4.518q8.834-1.035,18.011-2.341a2.267,2.267,0,0,1,.642,4.489q-9.24,1.317-18.13,2.354A2.047,2.047,0,0,1,304.21,240.417Zm-126.956-2.326a2.342,2.342,0,0,1-.5-.055c-4.384-.985-8.659-2.092-12.7-3.3q-2.58-.77-5.075-1.6a2.267,2.267,0,0,1,1.424-4.3q2.43.8,4.943,1.554c3.945,1.175,8.116,2.255,12.4,3.216a2.269,2.269,0,0,1-.49,4.483Zm-34.443-11.647a2.257,2.257,0,0,1-.99-.23,110.319,110.319,0,0,1-16.008-9.434,2.268,2.268,0,1,1,2.636-3.691,106.152,106.152,0,0,0,15.35,9.043,2.27,2.27,0,0,1-.988,4.311Zm78.063-2.027a2.268,2.268,0,0,1-2.267-2.267v-.8c0-5.717-.229-11.526-.683-17.269a2.27,2.27,0,0,1,4.525-.354c.457,5.858.69,11.789.69,17.624v.8A2.268,2.268,0,0,1,220.874,224.416Zm-107.38-19.23a2.263,2.263,0,0,1-1.675-.738,78.907,78.907,0,0,1-10.9-15.2,2.269,2.269,0,0,1,3.978-2.185,74.27,74.27,0,0,0,10.272,14.331,2.266,2.266,0,0,1-1.675,3.795Zm104.461-17.133a2.269,2.269,0,0,1-2.234-1.882,154.488,154.488,0,0,0-4-17.524,2.266,2.266,0,1,1,4.347-1.277,159.3,159.3,0,0,1,4.13,18.033,2.274,2.274,0,0,1-1.853,2.621A2.349,2.349,0,0,1,217.954,188.053ZM96.105,173.566a2.266,2.266,0,0,1-2.185-1.664q-.421-1.528-.79-3.081a43.912,43.912,0,0,1-1.211-10.052,38.633,38.633,0,0,1,.435-5.816,2.266,2.266,0,0,1,4.48.678,34.376,34.376,0,0,0-.383,5.137,39.376,39.376,0,0,0,1.092,9.007c.233.981.48,1.956.746,2.915a2.264,2.264,0,0,1-1.58,2.791A2.328,2.328,0,0,1,96.105,173.566ZM207.443,153.23a2.27,2.27,0,0,1-2.046-1.288,76.814,76.814,0,0,0-9.305-15.008,2.269,2.269,0,0,1,3.537-2.841,81.732,81.732,0,0,1,9.858,15.885,2.273,2.273,0,0,1-2.044,3.252ZM101.734,139.016a2.244,2.244,0,0,1-1.373-.462,2.268,2.268,0,0,1-.433-3.177,51.391,51.391,0,0,1,14.2-12.546,2.268,2.268,0,1,1,2.37,3.868,46.864,46.864,0,0,0-12.96,11.423A2.26,2.26,0,0,1,101.734,139.016Zm82.772-13.483a2.253,2.253,0,0,1-1.24-.369,51.239,51.239,0,0,0-15.894-6.879,2.269,2.269,0,0,1,1.085-4.407,55.848,55.848,0,0,1,17.3,7.493,2.266,2.266,0,0,1-1.247,4.162Zm-52.536-5.78a2.269,2.269,0,0,1-.642-4.444,85.576,85.576,0,0,1,17.826-3.222l.683-.022a2.415,2.415,0,0,1,2.31,2.222,2.264,2.264,0,0,1-2.222,2.31l-.493.019a80.712,80.712,0,0,0-16.819,3.041A2.32,2.32,0,0,1,131.971,119.753Z" transform="translate(-91.92 -112.065)"/></g><g transform="translate(457.216 51.586)"><g transform="translate(101.022)"><path class="m" d="M505.223,128.051H626.434a27.435,27.435,0,0,1,27.434,27.435V218a27.434,27.434,0,0,1-27.434,27.434H547.172l-28.509,25.155V245.438h-13.44A27.434,27.434,0,0,1,477.788,218V155.486A27.435,27.435,0,0,1,505.223,128.051Z" transform="translate(-477.788 -128.051)"/><g transform="translate(41.63 31.813)"><path class="a" d="M510,156.92h85.945a3.44,3.44,0,0,0,0-6.879H510a3.44,3.44,0,0,0,0,6.879Z" transform="translate(-506.564 -150.041)"/><g transform="translate(0 22.919)"><path class="a" d="M510,172.761h85.945a3.439,3.439,0,1,0,0-6.878H510a3.439,3.439,0,0,0,0,6.878Z" transform="translate(-506.564 -165.883)"/></g><g transform="translate(73.339 45.836)"><path class="a" d="M560.7,188.6h12.6a3.44,3.44,0,0,0,0-6.879H560.7a3.44,3.44,0,0,0,0,6.879Z" transform="translate(-557.258 -181.724)"/></g><g transform="translate(44.692 45.836)"><path class="a" d="M540.893,188.6H553.5a3.44,3.44,0,0,0,0-6.879H540.893a3.44,3.44,0,0,0,0,6.879Z" transform="translate(-537.456 -181.724)"/></g><g transform="translate(0 45.836)"><path class="a" d="M510,188.6h28.649a3.44,3.44,0,0,0,0-6.879H510a3.44,3.44,0,0,0,0,6.879Z" transform="translate(-506.564 -181.724)"/></g></g></g><g transform="translate(0 124.849)"><path class="n" d="M521.084,214.35H428.3a16.522,16.522,0,0,0-16.523,16.521v53.5a16.511,16.511,0,0,0,15.313,16.461l-19.133,31.352L458.381,300.9h62.7a16.522,16.522,0,0,0,16.521-16.523v-53.5A16.522,16.522,0,0,0,521.084,214.35Z" transform="translate(-407.959 -214.35)"/><g transform="translate(40.77 14.756)"><circle class="o" cx="10.985" cy="10.985" r="10.985" transform="translate(10.429 15.535) rotate(-45)"/><path class="o" d="M488.068,265.967H436.14a16.642,16.642,0,0,1,16.643-16.643h18.641a16.643,16.643,0,0,1,16.644,16.643Z" transform="translate(-436.14 -213.483)"/></g></g></g><g transform="translate(413.542)"><path class="i" d="M422.573,181.815a45.448,45.448,0,0,1-9.142-.93,2.271,2.271,0,0,1-1.765-2.679,2.3,2.3,0,0,1,2.679-1.765,41.038,41.038,0,0,0,14.237.395,2.27,2.27,0,0,1,.671,4.489A45.777,45.777,0,0,1,422.573,181.815Zm20.584-5.3a2.27,2.27,0,0,1-1.1-4.256,40.262,40.262,0,0,0,11.047-8.984,2.266,2.266,0,1,1,3.432,2.961,44.932,44.932,0,0,1-12.28,9.994A2.272,2.272,0,0,1,443.157,176.519Zm-43.22-1.218a2.246,2.246,0,0,1-1.2-.347,44.951,44.951,0,0,1-11.708-10.659,2.268,2.268,0,0,1,3.6-2.768,40.487,40.487,0,0,0,10.526,9.589,2.266,2.266,0,0,1-1.211,4.185Zm62.528-21.219a2.274,2.274,0,0,1-2.125-3.06,40.118,40.118,0,0,0,2.506-14.011,2.266,2.266,0,0,1,4.533,0A44.621,44.621,0,0,1,464.59,152.6,2.273,2.273,0,0,1,462.465,154.082Zm-80.547-2.251a2.269,2.269,0,0,1-2.167-1.6,44.9,44.9,0,0,1-1.981-13.213c0-.845.022-1.68.069-2.51a2.32,2.32,0,0,1,2.391-2.134,2.265,2.265,0,0,1,2.134,2.393c-.041.741-.062,1.494-.062,2.247a40.47,40.47,0,0,0,1.782,11.882,2.269,2.269,0,0,1-1.5,2.834A2.189,2.189,0,0,1,381.918,151.831Zm81.946-22.81a2.268,2.268,0,0,1-2.2-1.724,39.931,39.931,0,0,0-5.823-12.984,2.267,2.267,0,1,1,3.741-2.561,44.386,44.386,0,0,1,6.481,14.453,2.261,2.261,0,0,1-1.654,2.746A2.181,2.181,0,0,1,463.864,129.021Zm-80.292-6.747a2.273,2.273,0,0,1-2.077-3.177,44.487,44.487,0,0,1,8.806-13.162,2.265,2.265,0,1,1,3.262,3.144,40.1,40.1,0,0,0-7.914,11.834A2.265,2.265,0,0,1,383.571,122.273Zm63.594-17.7a2.242,2.242,0,0,1-1.311-.418A39.9,39.9,0,0,0,432.982,98.1a2.269,2.269,0,1,1,1.166-4.385,44.42,44.42,0,0,1,14.335,6.739,2.267,2.267,0,0,1-1.318,4.116ZM404.1,100.954a2.269,2.269,0,0,1-.985-4.311,44.474,44.474,0,0,1,15.258-4.24,2.3,2.3,0,0,1,2.47,2.049,2.272,2.272,0,0,1-2.049,2.47,40.032,40.032,0,0,0-13.709,3.8A2.237,2.237,0,0,1,404.1,100.954Z" transform="translate(-377.77 -92.393)"/><g transform="translate(15.079 23.08)"><path class="m" d="M417.917,108.347c-16.417,0-29.724,8.8-29.724,19.651v.056c.012,2.833,2.247,4.776,4.337,3.883l7.8-3.33c1.878-.8,2.789-3.534,1.944-5.837l-.959-2.617a117.74,117.74,0,0,0,33.089,0l-.968,3.358c-.612,2.127.182,4.5,1.805,5.383l7.717,4.213c1.876,1.024,4.067-.352,4.5-2.914a13.177,13.177,0,0,0,.184-2.195C447.643,117.143,434.334,108.347,417.917,108.347Z" transform="translate(-388.193 -108.347)"/><path class="a" d="M435.692,145.888h-41.2L400.6,126.76a8.65,8.65,0,0,1,8.24-6.02h12.508a8.654,8.654,0,0,1,8.242,6.02Z" transform="translate(-385.379 -102.811)"/></g><g transform="translate(265.53 232.985)"><path class="n" d="M606.12,342.86a45.1,45.1,0,0,1-9.153-.935,2.273,2.273,0,0,1-1.762-2.682,2.3,2.3,0,0,1,2.684-1.761,40.77,40.77,0,0,0,14.233.395,2.269,2.269,0,1,1,.671,4.488A46.113,46.113,0,0,1,606.12,342.86Zm20.579-5.294a2.269,2.269,0,0,1-1.1-4.252,40.376,40.376,0,0,0,11.047-8.987,2.266,2.266,0,0,1,3.433,2.96,44.867,44.867,0,0,1-12.28,9.991A2.232,2.232,0,0,1,626.7,337.567Zm-43.216-1.221a2.255,2.255,0,0,1-1.2-.347,44.964,44.964,0,0,1-11.7-10.659,2.268,2.268,0,1,1,3.595-2.768,40.385,40.385,0,0,0,10.523,9.589,2.266,2.266,0,0,1-1.211,4.185Zm62.524-21.216a2.3,2.3,0,0,1-.79-.143,2.27,2.27,0,0,1-1.337-2.917,40.116,40.116,0,0,0,2.507-14.01,2.266,2.266,0,1,1,4.532,0,44.606,44.606,0,0,1-2.788,15.59A2.267,2.267,0,0,1,646.007,315.13Zm-80.551-2.258a2.267,2.267,0,0,1-2.166-1.6,44.815,44.815,0,0,1-1.979-13.21c0-.842.023-1.675.071-2.507a2.376,2.376,0,0,1,2.388-2.137,2.268,2.268,0,0,1,2.137,2.389c-.04.749-.064,1.5-.064,2.255a40.245,40.245,0,0,0,1.779,11.873,2.269,2.269,0,0,1-1.5,2.836A2.233,2.233,0,0,1,565.456,312.871Zm81.957-22.8a2.268,2.268,0,0,1-2.2-1.723,40.034,40.034,0,0,0-5.823-12.981,2.267,2.267,0,1,1,3.743-2.561,44.39,44.39,0,0,1,6.48,14.45A2.264,2.264,0,0,1,647.959,290,2.175,2.175,0,0,1,647.413,290.068Zm-80.3-6.75a2.271,2.271,0,0,1-2.079-3.177,44.685,44.685,0,0,1,8.81-13.162,2.265,2.265,0,1,1,3.262,3.144,40.212,40.212,0,0,0-7.916,11.834A2.271,2.271,0,0,1,567.118,283.318Zm63.6-17.693a2.243,2.243,0,0,1-1.311-.418,39.825,39.825,0,0,0-12.873-6.056,2.269,2.269,0,1,1,1.166-4.385,44.493,44.493,0,0,1,14.335,6.743,2.267,2.267,0,0,1-1.318,4.116ZM587.65,262a2.269,2.269,0,0,1-.985-4.311,44.466,44.466,0,0,1,15.261-4.237,2.269,2.269,0,1,1,.421,4.518,39.916,39.916,0,0,0-13.712,3.8A2.219,2.219,0,0,1,587.65,262Z" transform="translate(-561.311 -253.438)"/><g transform="translate(18.083 25.574)"><rect class="a" width="52.734" height="29.903" transform="translate(0 10.978)"/><g transform="translate(9.647)"><path class="n" d="M605.264,279.7v-3.659a4.876,4.876,0,0,1,4.877-4.877h0a4.878,4.878,0,0,1,4.878,4.877v6.068h-9.755" transform="translate(-569.407 -271.094)"/><path class="j" d="M616.431,275.994v31.08H580.479v-31.08a4.878,4.878,0,0,1,4.877-4.878H620.9l-.988.205A4.878,4.878,0,0,0,616.431,275.994Z" transform="translate(-580.479 -271.116)"/><g transform="translate(2.235 5.015)"><rect class="n" width="7.972" height="8.184" transform="translate(0 0.047)"/><g transform="translate(10.414)"><line class="p" x2="20.266"/><line class="p" x2="20.266" transform="translate(0 2.756)"/><line class="p" x2="20.266" transform="translate(0 5.512)"/><line class="p" x2="20.266" transform="translate(0.191 8.268)"/></g><line class="p" x2="30.681" transform="translate(0 10.986)"/><line class="p" x2="30.681" transform="translate(0 13.742)"/><line class="p" x2="30.681" transform="translate(0 16.438)"/><line class="p" x2="14.912" transform="translate(0 19.194)"/></g></g><path class="n" d="M613.59,308.608H573.811V278.7Z" transform="translate(-573.811 -267.726)"/><path class="n" d="M582.765,308.608h39.779V278.7Z" transform="translate(-569.81 -267.726)"/><path class="n" d="M626.545,303.539H573.811l23.683-12.649a4.713,4.713,0,0,1,5.367,0Z" transform="translate(-573.81 -262.657)"/></g></g></g></g></g></g></svg>