<svg xmlns="http://www.w3.org/2000/svg" xmlns:xlink="http://www.w3.org/1999/xlink" width="211" height="140" viewBox="0 0 211 140"><defs><style>.a{fill:#c1c1c1;stroke:#f6f6f6;}.b{clip-path:url(#a);}.c,.d{fill:#33a5f1;}.c,.e,.k{opacity:0.1;}.f{fill:#3a3768;}.g{fill:#e6e8ec;}.h{fill:url(#b);}.i{fill:url(#c);}.j{fill:#fec2be;}.l{fill:#4c4981;}.m{opacity:0.05;}.n{fill:#ca8496;}.o{fill:#ceddf9;}.p{fill:#fff;}.q{fill:#ff718d;}.r{fill:#9a5e7f;}.s{fill:#a8a8a8;}.t{opacity:0.2;}</style><clipPath id="a"><rect class="a" width="211" height="140" rx="20" transform="translate(22 35)"/></clipPath><linearGradient id="b" x1="0.5" y1="1" x2="0.5" y2="0.001" gradientUnits="objectBoundingBox"><stop offset="0" stop-color="gray" stop-opacity="0.251"/><stop offset="0.54" stop-color="gray" stop-opacity="0.122"/><stop offset="1" stop-color="gray" stop-opacity="0.102"/></linearGradient><linearGradient id="c" x1="0.5" y1="1" x2="0.5" y2="0" xlink:href="#b"/></defs><g class="b" transform="translate(-22 -35)"><g transform="translate(48.01 35)"><ellipse class="c" cx="20.329" cy="3.497" rx="20.329" ry="3.497" transform="translate(108.545 125.497)"/><ellipse class="c" cx="30.097" cy="2.129" rx="30.097" ry="2.129" transform="translate(37.225 123.445)"/><path class="c" d="M72.3,12.427c5.39-4.8,13.852-5.782,21.547-5.4,24.187,1.2,46.02,12.879,64.906,26.085,6.84,4.788,13.568,9.934,18.005,16.519,9.034,13.4,6.355,31.978-6.208,43.013a64.222,64.222,0,0,1-14.775,9.19c-9.457,4.54-19.666,8.184-30.395,9.221a100.114,100.114,0,0,1-23.014-.893C81.107,107.281,60.239,100.9,42.752,90c-7.671-4.788-14.9-10.732-18.065-18.469S23.549,53.978,31.382,49.4c3.249-1.895,7.114-2.75,10.907-3.554,5.582-1.183,11.254-2.35,16.292-4.754C63.786,38.6,69.942,33.8,68.916,28.3,67.8,22.4,66.917,17.224,72.3,12.427Z" transform="translate(-23.113 -6.953)"/><line class="d" x1="1.288" transform="translate(26.758 30.253)"/><g class="e"><path d="M92.653,117.482a3.38,3.38,0,0,0,2.846,1.837c1.98,0,3.591-2.1,3.591-4.689s-1.616-4.672-3.591-4.672a3.165,3.165,0,0,0-2.42,1.23,4.633,4.633,0,0,0-.61.956l-.034.2a1.58,1.58,0,0,1-1.806.053V97.211H75.8a1.2,1.2,0,0,1-.18-1.118,1.43,1.43,0,0,1,.669-.816,3.382,3.382,0,0,0,1.838-2.846c0-1.98-2.1-3.591-4.689-3.591s-4.689,1.606-4.689,3.591a3.171,3.171,0,0,0,1.231,2.421,4.66,4.66,0,0,0,.954.609l.021.034a1.459,1.459,0,0,1,.286,1.71H64.552v28.127A6.669,6.669,0,0,0,71.221,132H90.634V117.077a1.182,1.182,0,0,1,1.209-.257A1.416,1.416,0,0,1,92.653,117.482Z" transform="translate(-23.113 -6.953)"/><path d="M67.695,96.619h2.322a4.687,4.687,0,0,1-1.831-3.678,5.208,5.208,0,0,1,10.389,0,4.687,4.687,0,0,1-1.831,3.678h13.92V81.634a1.2,1.2,0,0,1,1.209-.257,1.424,1.424,0,0,1,.817.669,3.376,3.376,0,0,0,2.846,1.837c1.98,0,3.591-2.1,3.591-4.687s-1.6-4.689-3.591-4.689a3.171,3.171,0,0,0-2.421,1.23,4.724,4.724,0,0,0-.61.956l-.032.021a1.46,1.46,0,0,1-1.808.241V61.768H76.386a1.2,1.2,0,0,1-.18-1.118,1.421,1.421,0,0,1,.669-.816,3.378,3.378,0,0,0,1.837-2.846c0-1.98-2.1-3.591-4.687-3.591S69.335,55,69.335,56.988a3.171,3.171,0,0,0,1.23,2.421,4.725,4.725,0,0,0,.956.611l.021.032a1.459,1.459,0,0,1,.286,1.71H67.695v-.77h3.051a4.686,4.686,0,0,1-1.83-3.672,5.208,5.208,0,0,1,10.389,0A4.686,4.686,0,0,1,77.466,61H90.651V45.83a1.187,1.187,0,0,1,1.211-.257,1.426,1.426,0,0,1,.816.669,3.378,3.378,0,0,0,2.846,1.837c1.98,0,3.591-2.1,3.591-4.689S97.51,38.7,95.523,38.7a3.166,3.166,0,0,0-2.421,1.23,4.632,4.632,0,0,0-.61.956l-.033.2a1.582,1.582,0,0,1-1.808.053V27h-19.4a6.669,6.669,0,0,0-6.669,6.669v7.22h-.1a.392.392,0,0,0-.392.392V44.7a.393.393,0,0,0,.392.392h.1v3.492h-.132a.393.393,0,0,0-.393.392V55.5a.393.393,0,0,0,.393.392h.132v2.565H64.47a.392.392,0,0,0-.392.392v2.1h-.086v4.433a.39.39,0,0,0,.392.392H64.5V96.619Z" transform="translate(-23.113 -6.953)"/><path d="M118.438,51.217a.393.393,0,0,0-.392-.393h-.236v-.429h-.128V33.336a6.411,6.411,0,0,0-6.413-6.413H92.031v13a4.745,4.745,0,0,1,3.762-1.89,5.208,5.208,0,0,1,0,10.394,4.742,4.742,0,0,1-3.762-1.89V60.956h15.562a4.7,4.7,0,0,1-1.828-3.682,5.017,5.017,0,0,1,5.185-4.833,5.378,5.378,0,0,1,3.483,1.255,4.569,4.569,0,0,1,0,7.14v.115h3.377v-.012h.628Z" transform="translate(-23.113 -6.953)"/><path d="M113.272,95.851v-1.71h0a3.25,3.25,0,0,0,.193-.32,2.849,2.849,0,0,0,.352-1.359,2.8,2.8,0,0,0-.161-.93,3.078,3.078,0,0,0-.385-.749h0a5.025,5.025,0,0,0-4.142-1.907c-2.591,0-4.689,1.606-4.689,3.591a3.171,3.171,0,0,0,1.23,2.421,4.724,4.724,0,0,0,.956.611l.021.032a1.46,1.46,0,0,1,.286,1.71H91.846v14.023a4.687,4.687,0,0,1,3.723-1.881,5.208,5.208,0,0,1,0,10.389,4.687,4.687,0,0,1-3.723-1.881V129.21h17.311a4.114,4.114,0,0,0,4.114-4.1V97.247h0v27.84a4.114,4.114,0,0,1-4.114,4.114H91.846v2.736H109.8a6.669,6.669,0,0,0,6.669-6.669V97.247h0v-.735h-3.2Z" transform="translate(-23.113 -6.953)"/></g><path class="f" d="M72.037,128.574a4.114,4.114,0,0,1-4.114-4.114V96.527h-3.2v28.122a6.669,6.669,0,0,0,6.669,6.669H90.8v-2.736Z" transform="translate(-23.113 -6.953)"/><path class="d" d="M92,116.136a1.416,1.416,0,0,1,.816.669,3.38,3.38,0,0,0,2.846,1.837c1.98,0,3.591-2.1,3.591-4.689s-1.609-4.679-3.584-4.679a3.165,3.165,0,0,0-2.42,1.23,4.632,4.632,0,0,0-.61.956l-.034.2a1.58,1.58,0,0,1-1.806.053V96.527H75.97a1.2,1.2,0,0,1-.18-1.118,1.43,1.43,0,0,1,.669-.816A3.382,3.382,0,0,0,78.3,91.747c0-1.98-2.1-3.591-4.689-3.591s-4.689,1.606-4.689,3.591a3.171,3.171,0,0,0,1.231,2.421,4.66,4.66,0,0,0,.954.609l.021.034a1.459,1.459,0,0,1,.286,1.71H67.922v27.937a4.114,4.114,0,0,0,4.114,4.114H90.8V116.393a1.182,1.182,0,0,1,1.2-.257Z" transform="translate(-23.113 -6.953)"/><rect class="f" width="0.508" height="0.828" transform="translate(41.045 53.305)"/><rect class="f" width="2.775" height="0.828" transform="translate(41.977 53.305)"/><rect class="f" width="0.424" height="0.828" transform="translate(41.553 53.305)"/><path class="d" d="M91.846,96.847" transform="translate(-23.113 -6.953)"/><path class="f" d="M64.55,65.082h.116v-4h-.513V64.69a.39.39,0,0,0,.4.392Z" transform="translate(-23.113 -6.953)"/><path class="f" d="M67.866,61.084H65.09V64.69a.392.392,0,0,1-.393.392h-.031V95.935h3.2Z" transform="translate(-23.113 -6.953)"/><path class="f" d="M64.666,65.082H64.7a.392.392,0,0,0,.393-.392V61.084h-.424Z" transform="translate(-23.113 -6.953)"/><path class="d" d="M68.357,92.25a5.208,5.208,0,0,1,10.389,0,4.687,4.687,0,0,1-1.831,3.685h13.92V80.95a1.2,1.2,0,0,1,1.209-.257,1.424,1.424,0,0,1,.817.669A3.376,3.376,0,0,0,95.706,83.2c1.98,0,3.591-2.1,3.591-4.687s-1.6-4.689-3.591-4.689a3.171,3.171,0,0,0-2.421,1.23,4.724,4.724,0,0,0-.611.956l-.032.021a1.46,1.46,0,0,1-1.808.241V61.084H76.557a1.2,1.2,0,0,1-.18-1.118,1.421,1.421,0,0,1,.669-.816A3.378,3.378,0,0,0,78.882,56.3c0-1.98-2.1-3.591-4.687-3.591s-4.689,1.606-4.689,3.591a3.171,3.171,0,0,0,1.23,2.421,4.725,4.725,0,0,0,.956.61l.021.032A1.459,1.459,0,0,1,72,61.079H67.866V95.935h2.322A4.687,4.687,0,0,1,68.357,92.25Z" transform="translate(-23.113 -6.953)"/><path class="f" d="M65.176,58.1a.392.392,0,0,0-.393-.392h-.031v2.551h.424Z" transform="translate(-23.113 -6.953)"/><path class="f" d="M64.737,40.2h-.086a.392.392,0,0,0-.392.392v3.42a.393.393,0,0,0,.392.392h.1V40.2Z" transform="translate(-23.113 -6.953)"/><path class="f" d="M64.62,47.891a.393.393,0,0,0-.393.392v6.531a.393.393,0,0,0,.393.392h.132V47.891Z" transform="translate(-23.113 -6.953)"/><path class="f" d="M64.752,57.763h-.111a.392.392,0,0,0-.392.392v2.16h.513Z" transform="translate(-23.113 -6.953)"/><path class="f" d="M64.752,32.98V40.2a.39.39,0,0,1,.376.39v3.42a.392.392,0,0,1-.376.39v3.492h.06a.392.392,0,0,1,.392.392v6.531a.392.392,0,0,1-.392.392h-.063v2.565h.031a.393.393,0,0,1,.393.392v2.151h2.775V33.175a4.114,4.114,0,0,1,4.113-4.114h5.577v.715a3.388,3.388,0,0,0,3.388,3.388h9.811V30.927H86.319a.665.665,0,0,1-.662-.658v-.144a.664.664,0,0,1,.662-.662h4.508v-3.15H71.418a6.669,6.669,0,0,0-6.666,6.668Z" transform="translate(-23.113 -6.953)"/><path class="f" d="M65.128,44.009v-3.42a.39.39,0,0,0-.376-.39v4.2a.392.392,0,0,0,.376-.388Z" transform="translate(-23.113 -6.953)"/><path class="f" d="M65.207,54.813V48.282a.392.392,0,0,0-.392-.392h-.063V55.2h.06a.392.392,0,0,0,.4-.392Z" transform="translate(-23.113 -6.953)"/><path class="d" d="M69.087,56.638a5.208,5.208,0,0,1,10.389,0,4.686,4.686,0,0,1-1.838,3.677H90.822V45.146a1.187,1.187,0,0,1,1.211-.257,1.426,1.426,0,0,1,.816.669,3.378,3.378,0,0,0,2.846,1.837c1.98,0,3.591-2.1,3.591-4.689s-1.6-4.687-3.591-4.687a3.166,3.166,0,0,0-2.421,1.23,4.633,4.633,0,0,0-.611.956l-.032.2a1.582,1.582,0,0,1-1.808.053v-7.3H81.016a3.388,3.388,0,0,1-3.379-3.388v-.715H72.064a4.114,4.114,0,0,0-4.113,4.12V60.314h2.965a4.686,4.686,0,0,1-1.83-3.677Z" transform="translate(-23.113 -6.953)"/><path class="g" d="M86.319,29.458a.664.664,0,0,0-.662.662v.149a.665.665,0,0,0,.662.664h4.508V29.463Z" transform="translate(-23.113 -6.953)"/><path class="f" d="M116.827,50.119V60.27h1.154V49.71h-.624A.482.482,0,0,0,116.827,50.119Z" transform="translate(-23.113 -6.953)"/><rect class="f" width="1.368" height="3.078" transform="translate(69.089 19.286)"/><rect class="f" width="1.368" height="2.223" transform="translate(69.089 23.903)"/><rect class="g" width="1.368" height="1.539" transform="translate(69.089 22.364)"/><path class="f" d="M118.217,50.139H117.9V60.258h.713V50.533a.393.393,0,0,0-.392-.393Z" transform="translate(-23.113 -6.953)"/><path class="f" d="M93.568,29.317c.364.082.684.746.684.746v.144s-.321.662-.684.65h0V33.08H101.3a3.389,3.389,0,0,0,3.388-3.389v-.715H110.5a4.113,4.113,0,0,1,4.1,4.113V53.012a4.569,4.569,0,0,1,0,7.14v.115H117V50.23a.05.05,0,0,1,.051-.05h.8V32.652a6.411,6.411,0,0,0-6.413-6.413H93.4v3.078Zm2.589-.015a.833.833,0,1,1-.833.833.833.833,0,0,1,.833-.833Z" transform="translate(-23.113 -6.953)"/><path class="d" d="M95.956,37.345a5.208,5.208,0,0,1,0,10.394,4.742,4.742,0,0,1-3.762-1.89V60.27h15.562a4.7,4.7,0,0,1-1.828-3.682,5.017,5.017,0,0,1,5.185-4.833,5.378,5.378,0,0,1,3.492,1.257V33.088a4.113,4.113,0,0,0-4.1-4.113h-5.814v.715A3.389,3.389,0,0,1,101.3,33.08H92.2v6.156a4.746,4.746,0,0,1,3.754-1.891Z" transform="translate(-23.113 -6.953)"/><path class="g" d="M93.568,30.857a.684.684,0,0,0,.684-.65v-.144a.855.855,0,0,0-.684-.746H93.4v1.539Z" transform="translate(-23.113 -6.953)"/><circle class="g" cx="0.833" cy="0.833" r="0.833" transform="matrix(0.987, -0.16, 0.16, 0.987, 72.089, 22.489)"/><path class="f" d="M113.443,95.167v-1.71a2.858,2.858,0,0,0,0-3.359Z" transform="translate(-23.113 -6.953)"/><rect class="f" width="3.2" height="0.735" transform="translate(90.329 88.874)"/><path class="d" d="M112.152,94.627a1.426,1.426,0,0,0-.669.816,1.2,1.2,0,0,0,.18,1.12h1.78v-.735h-.684a5.129,5.129,0,0,0,.684-.66v-1.71a4.05,4.05,0,0,1-1.291,1.17Z" transform="translate(-23.113 -6.953)"/><path class="d" d="M112.755,95.827h.684v-.66a5.129,5.129,0,0,1-.684.66Z" transform="translate(-23.113 -6.953)"/><path class="f" d="M113.988,91.781a2.919,2.919,0,0,0-.546-1.679v3.357a2.926,2.926,0,0,0,.546-1.678Z" transform="translate(-23.113 -6.953)"/><path class="f" d="M116.642,96.563v28.03a6.669,6.669,0,0,1-6.669,6.669H92.017v-2.736h17.311a4.114,4.114,0,0,0,4.114-4.114V96.563Z" transform="translate(-23.113 -6.953)"/><path class="d" d="M111.483,95.443a1.426,1.426,0,0,1,.669-.816,4.049,4.049,0,0,0,1.291-1.168V90.1A5.025,5.025,0,0,0,109.3,88.2c-2.591,0-4.689,1.606-4.689,3.591a3.171,3.171,0,0,0,1.23,2.421,4.724,4.724,0,0,0,.956.61l.021.032a1.46,1.46,0,0,1,.286,1.71H92.017v14.023A4.687,4.687,0,0,1,95.74,108.7a5.208,5.208,0,0,1,0,10.389,4.687,4.687,0,0,1-3.723-1.881v11.319h17.311a4.114,4.114,0,0,0,4.114-4.1V96.563h-1.775A1.2,1.2,0,0,1,111.483,95.443Z" transform="translate(-23.113 -6.953)"/><path class="h" d="M144.019,52.978a3.229,3.229,0,0,0,1.9-2.079,2.625,2.625,0,0,0,.065-.342,3.052,3.052,0,0,0,.109-.327,3.145,3.145,0,0,0-.653-2.716l-1.25,4.788h0Z" transform="translate(-23.113 -6.953)"/><path class="i" d="M172.875,51.181c-.195-1.144-3.807-3.622-3.807-3.622a10.138,10.138,0,0,1-2.44-1.843c-.54-.629-.71-.622-.761-.537a.256.256,0,0,0-.116-.039c-.034-.024-.067-.046-.1-.072h0a.231.231,0,0,0-.135-.234c-.041-.024-.082-.055-.123-.084a3.877,3.877,0,0,1-.4-1.679c-.041-.717-.855-.537-1.134-.457-.192-.359-.378-.732-.554-1.1a2.028,2.028,0,0,0,.193-.385,14.557,14.557,0,0,0,.612-3.5,10.16,10.16,0,0,0,.421-2.524V35.05a2.163,2.163,0,0,0-.139-.6c-.145-.366-.4-.684-.513-1.062-.183-.552-.067-1.161-.219-1.72a2.571,2.571,0,0,0-1.466-1.568,7.283,7.283,0,0,0-2.174-.513A10.187,10.187,0,0,0,154.5,30a.992.992,0,0,1-.513.139,1.575,1.575,0,0,1-.469-.217,1.426,1.426,0,0,0-1.433.219,4.121,4.121,0,0,0-.953,1.156,3.6,3.6,0,0,1-.983,1.13c-.494.33-1.147.441-1.539.886a1.431,1.431,0,0,0-.318.739v-.012a.944.944,0,0,0,0,.1V34.5a4.669,4.669,0,0,0,.33,1.214,1.69,1.69,0,0,0,.448.763c.6.484,1.539.027,2.257.3.063.022.123.051.183.079a.342.342,0,0,1-.027.084,5.676,5.676,0,0,0-.231,1.609,5.885,5.885,0,0,0,5.954,5.814,3.257,3.257,0,0,0,.366-.014c.017.063.036.128.051.19a6.3,6.3,0,0,1,.171,2.175l-.036-.318a1.577,1.577,0,0,0-.248-.094,2.213,2.213,0,0,0-.739-.113,4.288,4.288,0,0,0-3.326,1.891s-1.659.922-2.146,1.144a.229.229,0,0,0-.091.1h0s-2.218,3.35-2.447,4.624-.513,2.736-.513,2.736-.554,1.652-.911,2.384a7.858,7.858,0,0,0-.715,1.748,1.508,1.508,0,0,1-.554,1.46,2.716,2.716,0,0,0-.855,1.652s-.342.321-.826.728h-.017l1.787-6.852.32.08a.41.41,0,0,0,.421-.144.381.381,0,0,0,.07-.142l.361-1.389.145-.552.029-.113.21-.805L147,54.565l-.833-.207-2.353-.593.205-.787h0l.171-.667h0l1.076-4.128h0l.171-.665a5.637,5.637,0,0,0-3.112-1.939c-2.582-.641-5.082.4-5.585,2.329a2.627,2.627,0,0,0-.067.342,2.5,2.5,0,0,0-.108.325A2.75,2.75,0,0,0,136.5,49.6q.01.084.026.171a3.519,3.519,0,0,0,.655,1.466,4.672,4.672,0,0,0,.8.829l.012.038a1.561,1.561,0,0,1,.224.684c0,.034,0,.07,0,.106a1.573,1.573,0,0,1-.205.287L122.233,49.26l-.171.665h0L118.508,63.58h0a5.151,5.151,0,0,1,1.539-.812,5.012,5.012,0,0,1,.667-.171l.08-.014a4.766,4.766,0,0,1,1.912.079,4.892,4.892,0,0,1,3.629,4.191,5.1,5.1,0,0,1,.043.761,5.362,5.362,0,0,1-.1.966,5.15,5.15,0,0,1-6.033,3.53,4.788,4.788,0,0,1-3.232-2.762l-.171.667h0L113.173,84.03,127.146,87.5h0l.15-.672h.022a4.643,4.643,0,0,1-.964-3.7.2.2,0,0,1,.022-.065c.017-.05.036-.1.055-.145a4.711,4.711,0,0,1,.342-.675c.068-.111.14-.219.217-.323q.072-.1.149-.19a4.858,4.858,0,0,1,.836-.8l.1-.072c.113-.08.229-.157.342-.229.07-.041.142-.082.214-.12a5.546,5.546,0,0,1,2.688-.641,5.9,5.9,0,0,1,1.334.171,5.53,5.53,0,0,1,3.3,2.293,5,5,0,0,1,.28.479,4.682,4.682,0,0,1,.484,1.563,4.427,4.427,0,0,1-.034,1.308,4.655,4.655,0,0,1-1.809,2.341l-.171.643h.019l-.026.019-.171.641,3.191.793,4.52-17.28a2.756,2.756,0,0,0,1.843-.763,8.943,8.943,0,0,1,2.278-1.113c.4-.109.87-.188,1.242-.267-.438,2.174-.855,4.275-.817,4.4.012.048.091-.027.21-.192a.922.922,0,0,0-.015.192c0,.032.046.009.106-.058l-.009.041s-2.538,4.91-2.736,5.472a2.553,2.553,0,0,0,.829,2.48,1.672,1.672,0,0,1,.4.354l-.092.183a3.7,3.7,0,0,0-.5,1.655,2.242,2.242,0,0,1-.342,1.478s-2.2,6.791-2.148,8.745a42.861,42.861,0,0,1-.781,6.243s-.9,2.763-.366,3.55a20.016,20.016,0,0,1,1.147,4.219,3.481,3.481,0,0,1,.39,1.454,7.188,7.188,0,0,0,.392,1.881l1.368,4.932a4.374,4.374,0,0,0,.366,2.24c.513.929.463.643.219,2.264s.294,3.121,1.171,3.591a.536.536,0,0,1,.253.742h0c-.224-.087-.41.376-.522.751l-.113.108.075.019c-.048.171-.075.315-.075.315s-2.293,1.907-2.44,2.6-1.758,1.048-1.758,1.048a28.339,28.339,0,0,0-3.078,1,1.163,1.163,0,0,0-.674.925,2.538,2.538,0,0,0,.089.934c.243.976,3.66,1.072,5.3.811s5.026-1.216,5.026-1.216a29.1,29.1,0,0,0,4.617-.763c1.053-.421.219-1.525.219-1.525v-.1a5.977,5.977,0,0,0-.154-2.223,3.231,3.231,0,0,1-.157-1.491c.713-1.283-.817-5.13-.817-5.13a29.688,29.688,0,0,0,.1-4.313c-.195-.551-1.026-5.219-1.026-5.219a8.616,8.616,0,0,1-.316-2.478c.2-.357-.123-1.383-.123-1.383s-.836-1.141-.761-1.5a2.136,2.136,0,0,0-.245-1s2.49-3.718,2.269-4.409a3.972,3.972,0,0,1,.1-1.811s.313-.527.684-1.158c.462-.773,1.026-1.7,1.211-1.987a24.961,24.961,0,0,0,1.137-2.834c.137-.383.229-.646.229-.646s.39,7.011.732,7.721a55.825,55.825,0,0,1,.855,6.363,3.868,3.868,0,0,1,.245,1.573,39.192,39.192,0,0,0,.782,4.718,14.271,14.271,0,0,1,.121,3.43,49.648,49.648,0,0,0-.048,5.985,6.805,6.805,0,0,0-1.684,1.811,7.825,7.825,0,0,0,.048,2.931l.157.074a4.52,4.52,0,0,0-.279.927c-.048.453-.781,2.5-.708,2.789a10.936,10.936,0,0,1-.366,1.619c-.05.451-.658,1.12-.708,1.359a5.835,5.835,0,0,1-.268.628,5.984,5.984,0,0,0-.316.968c-.245,1,2.659,1.168,2.659,1.168,4.3.787,5.077-2.43,5.077-2.43a23.939,23.939,0,0,1,.732-3.078.342.342,0,0,0,.033-.272h0a3.625,3.625,0,0,0-.619-1.346,1.6,1.6,0,0,1-.123-.934,2.158,2.158,0,0,0,.368-.068c1.732-.5,1.026-3.384,1.026-3.384a9.087,9.087,0,0,0,1.171-2.644,29.279,29.279,0,0,1,.416-3c1.489-2.669.9-9.151,1.147-9.676s-.513-2.478-1.124-3.36-.366-3.265,0-3.955-.366-3.078-.366-3.078.708-4.617.684-5.339a15.5,15.5,0,0,1,.61-2.835s.634-1.1.487-1.43.487-1.2.318-1.573a4.224,4.224,0,0,1,.463-2.24,12.7,12.7,0,0,0,.513-2.2c.017-.1.034-.192.05-.286.711.45,1.368.785,1.6.694.436-.171-.258-2.394-.734-3.779.082-.062.116-.108.082-.128-.292-.192.032-1.05.032-1.05,1.725-1.016,1.139-1.778.587-2.223s-.195-1.71-.359-2.223a20.169,20.169,0,0,1,.489-4.511,3.229,3.229,0,0,0-.009-1.1c.313-.477.636-.976.92-1.438.975-1.589,3.058-9.151,3.058-9.151l-.014-.039c.2-.4.356-.728.438-.946C174.241,57.287,173.07,52.328,172.875,51.181ZM157.71,46.827l.044-.021v.036Zm-31.1,39.845Zm21.627,41.273a.781.781,0,0,1-.31-.062Z" transform="translate(-23.113 -6.953)"/><path class="j" d="M130.162,72.83c1.407.534,4.679.592,6.132.592h.715l.932-1.9-.932-1.582s-.855-.236-1.991-.441c-1.676-.3-3.969-.537-5.062.14C128.124,70.775,128.329,72.134,130.162,72.83Z" transform="translate(-23.113 -6.953)"/><path class="k" d="M136.293,73.422h.715l.932-1.9-.93-1.582s-.855-.236-1.991-.441C135.941,70.178,138.157,71.652,136.293,73.422Z" transform="translate(-23.113 -6.953)"/><path class="l" d="M151.73,50.126l-.41-.475S149.2,53,148.978,54.267s-.513,2.719-.513,2.719-.537,1.645-.886,2.372a7.864,7.864,0,0,0-.694,1.739,1.526,1.526,0,0,1-.539,1.455,2.7,2.7,0,0,0-.821,1.645s-2.4,2.339-3.67,2.394-4.9.7-4.775,1.329-1.517,1.011-2.182,1.17,4.275,2.052,1.392,4.491c0,0,1.833.38,2.023.821s2.119-.251,2.119-.251a2,2,0,0,1,1.835-1.045,2.871,2.871,0,0,0,2.15-.79,8.039,8.039,0,0,1,2.223-1.106c.8-.221,1.833-.316,1.866-.539s4.744-20.553,4.744-20.553Z" transform="translate(-23.113 -6.953)"/><path class="m" d="M151.73,50.126l-.41-.475S149.2,53,148.978,54.267s-.513,2.719-.513,2.719-.537,1.645-.886,2.372a7.864,7.864,0,0,0-.694,1.739,1.526,1.526,0,0,1-.539,1.455,2.7,2.7,0,0,0-.821,1.645s-2.4,2.339-3.67,2.394-4.9.7-4.775,1.329-1.517,1.011-2.182,1.17,4.275,2.052,1.392,4.491c0,0,1.833.38,2.023.821s2.119-.251,2.119-.251a2,2,0,0,1,1.835-1.045,2.871,2.871,0,0,0,2.15-.79,8.039,8.039,0,0,1,2.223-1.106c.8-.221,1.833-.316,1.866-.539s4.744-20.553,4.744-20.553Z" transform="translate(-23.113 -6.953)"/><path class="n" d="M156.655,137.878c4.174.783,4.934-2.42,4.934-2.42a24.038,24.038,0,0,1,.711-3.059.342.342,0,0,0,.033-.27h0a3.723,3.723,0,0,0-.6-1.341c-.26-.308-.048-1.589-.048-1.589l-4.838-1.233a7.235,7.235,0,0,0-.474,1.423c-.046.451-.759,2.49-.684,2.775a10.694,10.694,0,0,1-.356,1.613c-.048.451-.64,1.115-.684,1.351a5.586,5.586,0,0,1-.262.626,6.263,6.263,0,0,0-.308.963C153.833,137.712,156.655,137.878,156.655,137.878Z" transform="translate(-23.113 -6.953)"/><path class="k" d="M156.655,137.878c4.174.783,4.934-2.42,4.934-2.42a24.038,24.038,0,0,1,.711-3.059.342.342,0,0,0,.033-.27l-1.006,2.88s-.829,1.731-3.913,1.471a7.239,7.239,0,0,1-3.037-.727,6.265,6.265,0,0,0-.308.963C153.833,137.712,156.655,137.878,156.655,137.878Z" transform="translate(-23.113 -6.953)"/><path class="k" d="M159.9,133.372s-1.043.024-1.115-.829Z" transform="translate(-23.113 -6.953)"/><path class="d" d="M104.34,79.872l.662.169-.145.672-.614-.156Z"/><path class="k" d="M104.34,79.872l.662.169-.145.672-.614-.156Z"/><rect class="f" width="0.828" height="0.713" transform="translate(123.777 49.384) rotate(-75.72)"/><rect class="f" width="0.828" height="2.365" transform="translate(120.674 48.593) rotate(-75.72)"/><rect class="f" width="0.828" height="0.836" transform="translate(122.965 49.178) rotate(-75.72)"/><path class="d" d="M144.027,54.64c-.055.026-.108.053-.161.075l.133.034-.205.8-1.014-.258a1.2,1.2,0,0,1,.1-1.127,1.414,1.414,0,0,1,.855-.626,4.445,4.445,0,0,0,.634-.236Z" transform="translate(-23.113 -6.953)"/><path class="f" d="M146.447,58.1l.31.08a.392.392,0,0,0,.477-.284l.345-1.382-.684-.171Z" transform="translate(-23.113 -6.953)"/><path class="f" d="M146.211,51.235a3.188,3.188,0,0,1-1.849,2.069l1.214-4.771A3.157,3.157,0,0,1,146.211,51.235Z" transform="translate(-23.113 -6.953)"/><path class="f" d="M146.016,57.994a.392.392,0,0,1-.282-.475l.352-1.383-2.292-.583-6.989,27.454a4.559,4.559,0,0,1-1.489,5.852l-.162.64,3.1.8,8.193-32.182Z" transform="translate(-23.113 -6.953)"/><path class="f" d="M145.734,57.518a.392.392,0,0,0,.282.475l.431.109.448-1.761-.809-.207Z" transform="translate(-23.113 -6.953)"/><path class="d" d="M142.883,54.167a1.428,1.428,0,0,1,.855-.626,4.556,4.556,0,0,0,.633-.236l1.216-4.771a5.436,5.436,0,0,0-3.025-1.929c-2.509-.64-4.94.4-5.428,2.317a3.168,3.168,0,0,0,.6,2.651,4.616,4.616,0,0,0,.775.826l.012.038a1.46,1.46,0,0,1-.147,1.734l-15.333-3.9-3.459,13.592a4.692,4.692,0,0,1,4.061-.913,5.212,5.212,0,0,1-2.557,10.076,4.691,4.691,0,0,1-3.141-2.748l-3.552,13.947,13.581,3.456a4.682,4.682,0,0,1-.869-4.015,5.022,5.022,0,0,1,6.225-3.4,5.347,5.347,0,0,1,3.48,2.741l6.989-27.453-1-.258a1.2,1.2,0,0,1,.092-1.127Z" transform="translate(-23.113 -6.953)"/><path class="d" d="M144,54.75l.029-.109c-.053.026-.106.053-.161.077Z" transform="translate(-23.113 -6.953)"/><g class="e"><path d="M147.1,55.54l-.809-.207L144,54.75h0l.029-.109h0l.342-1.336a4.446,4.446,0,0,1-.634.236,1.414,1.414,0,0,0-.855.626,1.654,1.654,0,0,0-.127.27,1.641,1.641,0,0,1,.125-.27,1.428,1.428,0,0,1,.855-.626,4.557,4.557,0,0,0,.633-.236l1.216-4.771a5.436,5.436,0,0,0-3.025-1.929c-2.509-.64-4.94.4-5.428,2.317a3.168,3.168,0,0,0,.6,2.651,4.617,4.617,0,0,0,.775.826l.012.038a1.46,1.46,0,0,1-.147,1.734l-15.333-3.9-3.459,13.592a4.692,4.692,0,0,1,4.065-.913,5.212,5.212,0,0,1-2.557,10.076,4.691,4.691,0,0,1-3.141-2.748l-3.552,13.947,13.581,3.456a4.682,4.682,0,0,1-.869-4.015,5.022,5.022,0,0,1,6.225-3.4,5.347,5.347,0,0,1,3.48,2.741,4.559,4.559,0,0,1-1.489,5.852l-.162.64,3.1.8,8.193-32.182.31.08a.392.392,0,0,0,.477-.284l.345-1.389.2-.8Zm-3.153-.855c-.026.012-.051.026-.077.036h0Zm-1.163.614h0l1.014.258h0Z" transform="translate(-23.113 -6.953)"/><path d="M146.211,51.235a3.192,3.192,0,0,0-.634-2.7L144.363,53.3A3.166,3.166,0,0,0,146.211,51.235Z" transform="translate(-23.113 -6.953)"/></g><rect class="f" width="0.828" height="0.713" transform="translate(123.945 48.723) rotate(-75.72)"/><rect class="f" width="0.828" height="2.365" transform="translate(120.842 47.932) rotate(-75.72)"/><rect class="f" width="0.828" height="0.836" transform="translate(123.133 48.514) rotate(-75.72)"/><path class="d" d="M144.2,53.977l-.161.077.132.032-.2.807-1.014-.258a1.187,1.187,0,0,1,.1-1.127,1.423,1.423,0,0,1,.855-.626,4.425,4.425,0,0,0,.633-.236Z" transform="translate(-23.113 -6.953)"/><path class="f" d="M146.615,57.441l.311.079a.392.392,0,0,0,.482-.284l.352-1.382-.684-.171Z" transform="translate(-23.113 -6.953)"/><path class="f" d="M146.382,50.574a3.18,3.18,0,0,1-1.849,2.067l1.216-4.771A3.176,3.176,0,0,1,146.382,50.574Z" transform="translate(-23.113 -6.953)"/><path class="f" d="M146.186,57.332a.392.392,0,0,1-.282-.477l.342-1.382-2.281-.58-6.987,27.45a4.552,4.552,0,0,1-1.489,5.85l-.162.64,3.1.79,8.191-32.182Z" transform="translate(-23.113 -6.953)"/><path class="f" d="M145.9,56.855a.392.392,0,0,0,.282.477l.429.109.451-1.763-.811-.205Z" transform="translate(-23.113 -6.953)"/><path class="d" d="M143.053,53.5a1.423,1.423,0,0,1,.855-.626,4.425,4.425,0,0,0,.633-.236l1.214-4.771a5.435,5.435,0,0,0-3.023-1.929c-2.51-.638-4.94.4-5.429,2.319a3.166,3.166,0,0,0,.6,2.649,4.628,4.628,0,0,0,.775.828l.012.036a1.464,1.464,0,0,1-.147,1.734L123.2,49.6l-3.465,13.59a4.689,4.689,0,0,1,4.07-.911,5.208,5.208,0,0,1-2.565,10.067,4.7,4.7,0,0,1-3.136-2.75l-3.55,13.947,13.58,3.458a4.682,4.682,0,0,1-.867-4.015,5.02,5.02,0,0,1,6.225-3.4,5.335,5.335,0,0,1,3.482,2.75l6.987-27.45-1.014-.258a1.2,1.2,0,0,1,.1-1.132Z" transform="translate(-23.113 -6.953)"/><path class="d" d="M144.168,54.088l.027-.111c-.053.026-.106.053-.159.077Z" transform="translate(-23.113 -6.953)"/><path class="o" d="M141.765,105.34a20.861,20.861,0,0,1,1.115,4.2,3.531,3.531,0,0,1,.38,1.447,7.443,7.443,0,0,0,.38,1.881l1.329,4.91a4.412,4.412,0,0,0,.356,2.223c.5.918.45.64.214,2.252s.284,3.107,1.137,3.591-.38,1.589-.38,1.589,5.455,1.471,6.594.569-.593-5.361-.593-5.361a30.193,30.193,0,0,0,.1-4.292c-.19-.546-1-5.193-1-5.193a8.827,8.827,0,0,1-.308-2.468c.19-.356-.118-1.368-.118-1.368s-.807-1.139-.735-1.495a2.188,2.188,0,0,0-.238-1s2.415-3.711,2.2-4.407a4.052,4.052,0,0,1,.094-1.8l.674-1.153c.45-.77.994-1.691,1.177-1.979a25.2,25.2,0,0,0,1.106-2.82l.222-.643s.38,6.974.711,7.685a57,57,0,0,1,.829,6.327,3.933,3.933,0,0,1,.238,1.565,39.57,39.57,0,0,0,.759,4.7,14.578,14.578,0,0,1,.118,3.42,50.588,50.588,0,0,0-.048,5.954,6.777,6.777,0,0,0-1.637,1.8,7.926,7.926,0,0,0,.048,2.907s3.795,1.9,5.472,1.4,1-3.369,1-3.369a9.152,9.152,0,0,0,1.139-2.632,28.885,28.885,0,0,1,.414-2.981c1.447-2.656.877-9.106,1.115-9.628s-.5-2.468-1.091-3.345-.356-3.249,0-3.933-.366-3.063-.366-3.063.684-4.6.663-5.313a16.14,16.14,0,0,1,.593-2.822s.616-1.091.474-1.424.474-1.185.308-1.565a4.256,4.256,0,0,1,.451-2.223,14.272,14.272,0,0,0,.513-2.184c.145-.819.253-1.539.253-1.539l-3.914-3.155-9.771-2.565-3.675-1.185L146.48,82.5a14.349,14.349,0,0,0-.7,1.271,3.755,3.755,0,0,0-.489,1.647,2.276,2.276,0,0,1-.332,1.471s-2.136,6.758-2.088,8.7a43.65,43.65,0,0,1-.759,6.213S141.238,104.556,141.765,105.34Z" transform="translate(-23.113 -6.953)"/><path class="j" d="M156.208,50.362c.15-.062,10.467-4.323,9.046-5.17-.843-.5-1.881-2.634-2.592-4.3-.5-1.165-.833-2.1-.833-2.1s-8.28-1.471-5.317,3.6a9.4,9.4,0,0,1,1.045,2.5A5.617,5.617,0,0,1,156.208,50.362Z" transform="translate(-23.113 -6.953)"/><path class="k" d="M156.513,42.393a9.407,9.407,0,0,1,1.045,2.5,5.782,5.782,0,0,0,4.889-3.436,5.511,5.511,0,0,0,.215-.566c-.5-1.165-.833-2.1-.833-2.1S153.549,37.317,156.513,42.393Z" transform="translate(-23.113 -6.953)"/><path class="j" d="M151.365,38.93a5.785,5.785,0,1,0,.226-1.6,5.785,5.785,0,0,0-.226,1.6Z" transform="translate(-23.113 -6.953)"/><path class="k" d="M145.784,83.77a3.541,3.541,0,0,1,.838,1.6s2.847,1.944,2.657.711,1.471-6.214,1.471-6.214l-.19,6.784s9.106-.428,9.771-1.091,4.554-1.936,4.554-1.936,1.2.956,2.285,1.681c.145-.819.253-1.539.253-1.539l-3.914-3.155-9.771-2.565-3.675-1.185L146.48,82.5a14.352,14.352,0,0,0-.7,1.267Z" transform="translate(-23.113 -6.953)"/><path class="p" d="M145.484,83.234a3.185,3.185,0,0,1,1.043,1.755s2.846,1.944,2.656.711,1.471-6.214,1.471-6.214l-.19,6.784s9.108-.424,9.77-1.091,4.554-1.944,4.554-1.944,3.369,2.7,3.984,2.466-1.091-4.838-1.091-4.838L165.928,53.92s.474-8.017-.238-8.3a1.026,1.026,0,0,1-.3-.186,3.025,3.025,0,0,1-.65-1.994c-.046-.855-1.185-.428-1.185-.428l.664.855-5.878,3.574-.051.031a6.5,6.5,0,0,0-.706-.32,2.558,2.558,0,0,0-1.666-.2,1.611,1.611,0,0,0-.622.561,7.048,7.048,0,0,0-.8,1.621l-2.129,3.6s-1.091,4.788-1.091,4.981-.332,4.554-.711,5.028a7.931,7.931,0,0,0-.617,3.557,19.4,19.4,0,0,1-.238,3.369c-1.565,1.281-2.37,5.643-2.37,5.643s-2.473,4.891-2.668,5.455A2.57,2.57,0,0,0,145.484,83.234Z" transform="translate(-23.113 -6.953)"/><path class="k" d="M158.342,47.627a12.016,12.016,0,0,0,2.242,2.052l4.807-4.061a3.027,3.027,0,0,1-.65-2c-.046-.855-1.185-.426-1.185-.426l.139.171a.766.766,0,0,1-.207,1.124Z" transform="translate(-23.113 -6.953)"/><path class="p" d="M158.342,47.437a12.016,12.016,0,0,0,2.242,2.052l4.807-4.061a3.025,3.025,0,0,1-.65-1.994c-.046-.855-1.185-.428-1.185-.428l.139.171a.764.764,0,0,1-.207,1.122Z" transform="translate(-23.113 -6.953)"/><path class="k" d="M156.119,48.077c.621.742,1.5,1.585,1.46,1.163a3.668,3.668,0,0,1,.886-1.772,2.625,2.625,0,0,0-1.724.048A1.6,1.6,0,0,0,156.119,48.077Z" transform="translate(-23.113 -6.953)"/><path class="p" d="M156.025,47.791c.621.744,1.5,1.585,1.459,1.165s.467-1.106.828-1.524a2.544,2.544,0,0,0-1.666-.2,1.59,1.59,0,0,0-.621.559Z" transform="translate(-23.113 -6.953)"/><circle class="q" cx="0.38" cy="0.38" r="0.38" transform="translate(134.087 44.026)"/><circle class="q" cx="0.38" cy="0.38" r="0.38" transform="translate(131.209 54.271)"/><circle class="q" cx="0.38" cy="0.38" r="0.38" transform="translate(127.953 64.644)"/><circle class="q" cx="0.38" cy="0.38" r="0.38" transform="translate(127.857 75.932)"/><circle class="q" cx="0.38" cy="0.38" r="0.38" transform="translate(132.411 48.864)"/><circle class="q" cx="0.38" cy="0.38" r="0.38" transform="translate(129.849 59.394)"/><circle class="q" cx="0.38" cy="0.38" r="0.38" transform="translate(127.351 69.735)"/><circle class="q" cx="0.38" cy="0.38" r="0.38" transform="translate(127.92 77.198)"/><path class="k" d="M165.391,45.659s-.063-.569.758.412a9.9,9.9,0,0,0,2.372,1.833s3.511,2.468,3.7,3.6,1.327,6.072.727,7.716-5.19,9.52-5.19,9.52a4.278,4.278,0,0,1,.918,3.1,21.072,21.072,0,0,0-.475,4.491c.157.506-.19,1.77.342,2.213s1.106,1.2-.569,2.213c0,0-.316.855-.033,1.045s-4.205,2.15-5.985,1.106S157,73.521,156.928,71.655a44.334,44.334,0,0,1,1.549-9.487c.569-1.45,2.278-7.116,3-8.379S165.391,45.659,165.391,45.659Z" transform="translate(-23.113 -6.953)"/><path class="l" d="M165.579,45.659s-.063-.569.759.412a9.937,9.937,0,0,0,2.372,1.833s3.511,2.468,3.7,3.6,1.327,6.072.727,7.716-5.187,9.52-5.187,9.52a4.278,4.278,0,0,1,.918,3.1,21.071,21.071,0,0,0-.475,4.491c.157.506-.19,1.77.342,2.213s1.106,1.2-.569,2.213c0,0-.316.855-.032,1.045s-4.205,2.15-5.985,1.106-4.959-9.392-5.028-11.257a44.333,44.333,0,0,1,1.549-9.487c.569-1.45,2.278-7.116,3-8.379S165.579,45.659,165.579,45.659Z" transform="translate(-23.113 -6.953)"/><path class="k" d="M166.845,51.042s-2.719,3-2.625,5A6.361,6.361,0,0,1,166.845,51.042Z" transform="translate(-23.113 -6.953)"/><path class="k" d="M163.083,55.976c0,.094-1.835,6.924-1.739,7.779a16.556,16.556,0,0,1-.539,3.383l-.855-.221s.664-3.511.79-4.807S163.083,55.976,163.083,55.976Z" transform="translate(-23.113 -6.953)"/><path class="k" d="M162.354,75.455c.063.094,4.333,4.932,3.131,5.281S162.354,75.455,162.354,75.455Z" transform="translate(-23.113 -6.953)"/><path class="k" d="M165.865,74.217c.094.063,1.71,3.478,1.9,2.565s-1.39,2.5-1.643-.031Z" transform="translate(-23.113 -6.953)"/><path class="k" d="M157.669,46.741s-1.763-1.076-3.978,1.676c0,0-1.613.917-2.086,1.139s-1.012,6.1-1.012,6.1-1.043,2.529-.759,3.984-.821,6.45-.821,6.45-1.837,8.978-1.775,9.234A9.047,9.047,0,0,0,149.072,71a26.935,26.935,0,0,1,1.739-6.546c.222-.286,1.739-8.41,1.739-8.41a30.555,30.555,0,0,1,2.023-4.586c.79-1.139,1.772-3.288,2.182-3.668a4.18,4.18,0,0,1,.98-.633Z" transform="translate(-23.113 -6.953)"/><path class="l" d="M157.691,46.741s-1.977-1.076-4.19,1.676c0,0-1.614.917-2.088,1.139s-1.012,6.1-1.012,6.1-1.043,2.529-.759,3.984-.821,6.45-.821,6.45-1.835,8.981-1.772,9.234A9.047,9.047,0,0,0,148.884,71a26.935,26.935,0,0,1,1.739-6.546c.222-.286,1.744-8.41,1.744-8.41a30.555,30.555,0,0,1,2.023-4.586c.79-1.139,1.772-3.288,2.182-3.668a3.887,3.887,0,0,1,1.17-.633Z" transform="translate(-23.113 -6.953)"/><path class="j" d="M149.011,66.5s-3.762-2.466-5.582-1.248-4.788,2.941-1.866,4.19a18.274,18.274,0,0,0,6.972,1.009Z" transform="translate(-23.113 -6.953)"/><path class="k" d="M151.627,90.3c.561,1.2,1.026,7.247,1.337,9.164.45-.77.994-1.691,1.177-1.979a25.2,25.2,0,0,0,1.106-2.82,18.906,18.906,0,0,1-1.344-4.275c0-1.115-1.8-2.514-1.8-2.514A2.1,2.1,0,0,0,151.627,90.3Z" transform="translate(-23.113 -6.953)"/><path class="k" d="M163.722,108.872s-4.174-1.778-5.407-.513S163.722,108.872,163.722,108.872Z" transform="translate(-23.113 -6.953)"/><path class="k" d="M161.374,109.583s4.222,2.372,2.775,2.769S161.374,109.583,161.374,109.583Z" transform="translate(-23.113 -6.953)"/><path class="k" d="M148.757,107.521s1.8.118,1.115.474S148.757,107.521,148.757,107.521Z" transform="translate(-23.113 -6.953)"/><path class="k" d="M146.5,108.066c.024.118,5.241,1.8,4.222,2.565S146.5,108.066,146.5,108.066Z" transform="translate(-23.113 -6.953)"/><path class="k" d="M163.1,122.581c-.782-.12-5.146-2.136-3.439-.684A3.383,3.383,0,0,0,163.1,122.581Z" transform="translate(-23.113 -6.953)"/><path class="k" d="M160.947,124.17a1.7,1.7,0,0,1-1.826,1.281C157.674,125.261,160.947,124.17,160.947,124.17Z" transform="translate(-23.113 -6.953)"/><path class="k" d="M162.158,127.158c-.262-.07-3.369-1.493-3.439-.829s2.964,1.826,3.2,1.471a1.272,1.272,0,0,0,.238-.641Z" transform="translate(-23.113 -6.953)"/><path class="k" d="M152.1,125.451c-.38-.024-3.933-1.163-4.648-.144Z" transform="translate(-23.113 -6.953)"/><path class="k" d="M148.875,126.114a1.262,1.262,0,0,0-1.233-.262C147.027,126.137,148.875,126.114,148.875,126.114Z" transform="translate(-23.113 -6.953)"/><path class="k" d="M156.75,132a1.062,1.062,0,0,1-.807.829Z" transform="translate(-23.113 -6.953)"/><path class="n" d="M138.653,134.225c.238.973,3.559,1.067,5.147.807s4.886-1.211,4.886-1.211a26.732,26.732,0,0,0,4.482-.758c1.019-.426.214-1.519.214-1.519v-.1a6.214,6.214,0,0,0-.149-2.223,4.725,4.725,0,0,1-.118-1.922s-4.91.949-5.005.5a2.56,2.56,0,0,0-1.209-1.233c-.354-.142-.617,1.185-.617,1.185s-2.223,1.9-2.372,2.586-1.71,1.043-1.71,1.043a26.907,26.907,0,0,0-2.989,1,1.147,1.147,0,0,0-.653.922,2.565,2.565,0,0,0,.094.93Z" transform="translate(-23.113 -6.953)"/><path class="k" d="M138.653,134.225c.238.973,3.559,1.067,5.147.807s4.886-1.211,4.886-1.211a26.732,26.732,0,0,0,4.482-.758c1.019-.426.214-1.519.214-1.519v-.1l-4.959,1.1a13.506,13.506,0,0,1-4.008,1.043c-1.368,0-4.429.559-5.848-.289A2.565,2.565,0,0,0,138.653,134.225Z" transform="translate(-23.113 -6.953)"/><path class="k" d="M145.365,130.479a3.23,3.23,0,0,0,1.187,2.086Z" transform="translate(-23.113 -6.953)"/><path class="k" d="M151.591,37.327a1.7,1.7,0,0,0,.282.118,1.748,1.748,0,0,0,1.274-.421c.4-.239.941-.417,1.283-.106.446.405.123,1.271.583,1.662.291.248.752.162,1.076.366a1.543,1.543,0,0,1,.5,1.035c.082.385.246.824.622.937s.727-.135,1.1-.121c.077,0,.171.012.219-.043a.231.231,0,0,0,.036-.171,3.655,3.655,0,0,1,.121-1.368,1.319,1.319,0,0,1,.964-.9c.665-.1,1.224.481,1.616,1.026a16.807,16.807,0,0,1,1.122,1.806,1.158,1.158,0,0,1,.056.125,5.787,5.787,0,1,0-10.856-3.933Z" transform="translate(-23.113 -6.953)"/><path class="r" d="M161.268,39.243c-.392-.551-.951-1.132-1.618-1.026a1.312,1.312,0,0,0-.963.9,3.622,3.622,0,0,0-.12,1.368.239.239,0,0,1-.038.171c-.053.056-.142.048-.219.044-.371-.014-.74.227-1.1.121s-.54-.552-.622-.937a1.521,1.521,0,0,0-.5-1.035c-.332-.21-.785-.118-1.076-.368-.46-.39-.135-1.257-.583-1.662-.342-.31-.888-.132-1.283.108a1.748,1.748,0,0,1-1.276.419c-.15-.041-.286-.127-.433-.183-.7-.268-1.614.186-2.192-.3a1.7,1.7,0,0,1-.438-.758,4.82,4.82,0,0,1-.32-1.209,1.616,1.616,0,0,1,.322-1.178c.376-.443,1.012-.554,1.493-.881a3.753,3.753,0,0,0,.954-1.125,4.2,4.2,0,0,1,.927-1.151,1.365,1.365,0,0,1,1.39-.219,1.539,1.539,0,0,0,.457.217.944.944,0,0,0,.5-.139,9.7,9.7,0,0,1,5.365-.407,6.909,6.909,0,0,1,2.112.513,2.538,2.538,0,0,1,1.424,1.56c.147.557.034,1.165.212,1.71.12.373.366.684.513,1.059.385,1-.075,2.1-.27,3.152a14.768,14.768,0,0,1-.6,3.485c-.1.214-.2.588-.445.448-.171-.1-.352-.711-.455-.9a16.618,16.618,0,0,0-1.129-1.8Z" transform="translate(-23.113 -6.953)"/><path class="k" d="M171.691,57.778l.855,2.435s-2.025,7.524-2.974,9.106-2.339,3.6-2.339,3.6a8.669,8.669,0,0,1-5.06.633c-2.721-.539-10.661-1.96-10.661-1.96a1.055,1.055,0,0,1-1.012-.38c-.347-.506-2.155-.763-2.155-.763s-2.086-3.035.475-4.3c0,0,.316.7,1.676.222s1.77.378,1.77.378a14.465,14.465,0,0,0,3.448.286c1.224-.157,4.3-.222,4.617-.475a.407.407,0,0,1,.569.032,3.431,3.431,0,0,0,1.011-.569c.253-.286.6.316.6.316s.443-.253.316-.569.41-1.517.41-1.517a3.091,3.091,0,0,0,.1-1.424c-.157-.633.79-2.907.79-2.907A4.024,4.024,0,0,0,164,58.787c-.159-.568,1.2-1.71,1.2-1.71s1.327-6.452,4.142-4.333A5.564,5.564,0,0,1,171.691,57.778Z" transform="translate(-23.113 -6.953)"/><path class="l" d="M171.873,57.778l.855,2.435s-2.025,7.524-2.974,9.106-2.338,3.6-2.338,3.6a8.669,8.669,0,0,1-5.06.633c-2.721-.539-10.657-1.96-10.657-1.96a1.053,1.053,0,0,1-1.011-.38c-.347-.506-2.153-.763-2.153-.763s-2.086-3.035.475-4.3c0,0,.316.7,1.676.222s1.77.378,1.77.378a14.464,14.464,0,0,0,3.447.286c1.224-.157,4.3-.222,4.617-.475a.407.407,0,0,1,.569.032,3.431,3.431,0,0,0,1.011-.569c.253-.286.6.316.6.316s.443-.253.316-.569.41-1.517.41-1.517a3.076,3.076,0,0,0,.094-1.424c-.159-.633.792-2.907.792-2.907a4.025,4.025,0,0,0-.127-1.139c-.159-.568,1.2-1.71,1.2-1.71s1.327-6.452,4.142-4.333A5.545,5.545,0,0,1,171.873,57.778Z" transform="translate(-23.113 -6.953)"/><path class="k" d="M151.319,67.96c.031.222.727,1.106.474,1.265s-.664.063-.284.569.342,1.264.094,1.17a3.057,3.057,0,0,1-.664-1.676A4.977,4.977,0,0,1,151.319,67.96Z" transform="translate(-23.113 -6.953)"/><path class="k" d="M160.711,67.454s.19,2.215,1.746,2.847S160.711,67.454,160.711,67.454Z" transform="translate(-23.113 -6.953)"/><path class="k" d="M163.936,66.693c.094.032,2.213,1.171,1.265,1.835S163.936,66.693,163.936,66.693Z" transform="translate(-23.113 -6.953)"/><path class="k" d="M164.063,65.114s3.1.633,2.052,1.17S164.063,65.114,164.063,65.114Z" transform="translate(-23.113 -6.953)"/><g class="e"><path d="M158.695,38.576a1.323,1.323,0,0,1,.963-.9c.667-.1,1.226.481,1.618,1.026a16.8,16.8,0,0,1,1.122,1.806c.1.19.277.8.455.9.241.142.342-.233.445-.446a14.739,14.739,0,0,0,.6-3.485,20.2,20.2,0,0,0,.407-2.035,9.879,9.879,0,0,1-.407,2.539,14.8,14.8,0,0,1-.6,3.487c-.1.214-.2.588-.445.446-.171-.1-.352-.71-.455-.9a16.807,16.807,0,0,0-1.122-1.806c-.392-.549-.951-1.132-1.618-1.026a1.312,1.312,0,0,0-.963.9,2.508,2.508,0,0,0-.127.711A3.31,3.31,0,0,1,158.695,38.576Z" transform="translate(-23.113 -6.953)"/><path d="M148.809,35.57a1.691,1.691,0,0,0,.438.759c.578.482,1.489.027,2.192.3.147.055.282.142.433.183a1.754,1.754,0,0,0,1.276-.421c.393-.239.942-.416,1.283-.106.448.405.123,1.271.583,1.662.291.248.752.171,1.076.368a1.522,1.522,0,0,1,.5,1.026c.082.378.245.824.622.937s.727-.133,1.1-.12c.077,0,.171.012.219-.044a.16.16,0,0,0,.026-.048c0,.128,0,.255.012.381a.241.241,0,0,1-.038.171c-.053.055-.142.046-.219.043-.371-.012-.74.227-1.1.121s-.54-.551-.622-.937a1.48,1.48,0,0,0-.5-1.026c-.332-.2-.785-.12-1.076-.368-.46-.392-.135-1.259-.583-1.662-.342-.311-.888-.133-1.283.106a1.757,1.757,0,0,1-1.276.421c-.15-.041-.286-.128-.433-.183-.7-.268-1.614.186-2.192-.3a1.7,1.7,0,0,1-.438-.759,4.826,4.826,0,0,1-.32-1.207,1.954,1.954,0,0,1,.01-.424,5.088,5.088,0,0,0,.31,1.127Z" transform="translate(-23.113 -6.953)"/></g><path class="d" d="M40.176,131.2s-7.23-.436-6.379,4.629a1.234,1.234,0,0,0,.643,1.3s.012-.376.742-.25a3.4,3.4,0,0,0,.785.039,1.635,1.635,0,0,0,.959-.4h0s2.033-.84,2.823-4.162c0,0,.585-.723.561-.91l-1.219.513a2.188,2.188,0,0,1,.089,1.613s-.039-1.58-.274-1.539c-.048,0-.634.3-.634.3A3.592,3.592,0,0,1,38.444,135s.205-1.89-.4-2.538l-.855.5a3.8,3.8,0,0,1,.27,2.876s.145-1.982-.451-2.753l-.778.607a3.7,3.7,0,0,1,.308,2.632s-.063-2.307-.475-2.481a4.477,4.477,0,0,0-.785.855s.539,1.134.2,1.732c0,0-.205-1.539-.373-1.539a4.993,4.993,0,0,0-.749,1.71,3.7,3.7,0,0,1,.585-1.814,2.037,2.037,0,0,0-1.038.539s.1-.72,1.206-.783a4.738,4.738,0,0,1,.71-.819,4.452,4.452,0,0,0-1.758.2,1.962,1.962,0,0,1,1.96-.369l.768-.628a6.361,6.361,0,0,0-2.052.021A2.5,2.5,0,0,1,37,132.784l.836-.5a7.614,7.614,0,0,0-1.96-.171,3.009,3.009,0,0,1,2.206.036l.6-.268s-.9-.171-1.163-.205-.279-.1-.279-.1a3.123,3.123,0,0,1,1.691.188A7.8,7.8,0,0,0,40.176,131.2Z" transform="translate(-23.113 -6.953)"/><ellipse class="c" cx="5.117" cy="0.865" rx="5.117" ry="0.865" transform="translate(6.967 129.759)"/><path class="d" d="M54.038,117.853s-4.077-.246-3.591,2.611a.7.7,0,0,0,.363.734s0-.212.419-.14a2.005,2.005,0,0,0,.443.022.935.935,0,0,0,.54-.224h0a3.231,3.231,0,0,0,1.594-2.348s.33-.409.316-.513l-.684.292a1.24,1.24,0,0,1,.05.91s-.022-.891-.154-.87c-.027,0-.357.171-.357.171a2.029,2.029,0,0,1,.1,1.493s.115-1.065-.226-1.431l-.487.291a2.14,2.14,0,0,1,.152,1.621,3.036,3.036,0,0,0-.255-1.553l-.438.342a2.09,2.09,0,0,1,.171,1.484s-.036-1.3-.268-1.4a2.736,2.736,0,0,0-.443.477s.3.64.116.976c0,0-.116-.867-.21-.87a2.855,2.855,0,0,0-.422.968,2.086,2.086,0,0,1,.328-1.026,1.159,1.159,0,0,0-.585.3s.06-.407.684-.441a2.59,2.59,0,0,1,.4-.462,2.506,2.506,0,0,0-.992.113,1.114,1.114,0,0,1,1.1-.209l.433-.354a3.564,3.564,0,0,0-1.156.012,1.4,1.4,0,0,1,1.274-.092l.47-.28a4.225,4.225,0,0,0-1.1-.1,1.689,1.689,0,0,1,1.243.019l.342-.15s-.513-.1-.655-.116-.157-.056-.157-.056a1.765,1.765,0,0,1,.954.106A3.972,3.972,0,0,0,54.038,117.853Z" transform="translate(-23.113 -6.953)"/><ellipse class="c" cx="2.885" cy="0.487" rx="2.885" ry="0.487" transform="translate(25.239 114.005)"/><path class="d" d="M29.986,120.333s-4.922-.3-4.335,3.152a.841.841,0,0,0,.438.886s0-.257.5-.171a2.246,2.246,0,0,0,.535.026,1.1,1.1,0,0,0,.653-.27h0a3.905,3.905,0,0,0,1.922-2.832s.4-.493.381-.619l-.843.356a1.494,1.494,0,0,1,.06,1.1s-.027-1.074-.186-1.048c-.032,0-.431.207-.431.207a2.459,2.459,0,0,1,.12,1.8s.139-1.286-.274-1.727l-.583.342a2.582,2.582,0,0,1,.183,1.956,3.707,3.707,0,0,0-.306-1.881l-.53.414a2.527,2.527,0,0,1,.209,1.792s-.043-1.572-.323-1.69a3.279,3.279,0,0,0-.535.576s.368.771.14,1.178c0,0-.14-1.047-.255-1.052a3.537,3.537,0,0,0-.513,1.17,2.522,2.522,0,0,1,.4-1.235,1.383,1.383,0,0,0-.708.366s.072-.491.823-.534a3.272,3.272,0,0,1,.482-.557,3.033,3.033,0,0,0-1.2.137,1.346,1.346,0,0,1,1.334-.251l.523-.428a4.316,4.316,0,0,0-1.4.015,1.7,1.7,0,0,1,1.539-.111l.569-.342a5.141,5.141,0,0,0-1.334-.116,2.043,2.043,0,0,1,1.5.024l.407-.183s-.612-.12-.792-.139-.19-.068-.19-.068a2.114,2.114,0,0,1,1.151.127A5.028,5.028,0,0,0,29.986,120.333Z" transform="translate(-23.113 -6.953)"/><ellipse class="c" cx="3.483" cy="0.588" rx="3.483" ry="0.588" transform="translate(0 117.13)"/><ellipse class="c" cx="5.117" cy="0.865" rx="5.117" ry="0.865" transform="translate(98.808 138.27)"/><path class="s" d="M123.6,142.069s2.919-.091,3.8-.717,4.489-1.368,4.708-.369,4.386,5,1.091,5.022-7.656-.513-8.535-1.048S123.6,142.069,123.6,142.069Z" transform="translate(-23.113 -6.953)"/><path class="t" d="M133.257,145.655c-3.3.027-7.656-.513-8.533-1.047-.669-.409-.935-1.869-1.026-2.543h-.1s.185,2.353,1.062,2.888,5.24,1.074,8.535,1.048c.951,0,1.279-.342,1.262-.855C134.33,145.46,133.965,145.65,133.257,145.655Z" transform="translate(-23.113 -6.953)"/></g></g></svg>